<?xml version="1.0" encoding="UTF-8" standalone="no"?>
<svg
   xmlns:dc="http://purl.org/dc/elements/1.1/"
   xmlns:cc="http://creativecommons.org/ns#"
   xmlns:rdf="http://www.w3.org/1999/02/22-rdf-syntax-ns#"
   xmlns:svg="http://www.w3.org/2000/svg"
   xmlns="http://www.w3.org/2000/svg"
   viewBox="0 0 1066.6667 1066.6667"
   height="1066.6667"
   width="1066.6667"
   xml:space="preserve"
   id="svg2"
   version="1.1"><metadata
     id="metadata8"><rdf:RDF><cc:Work
         rdf:about=""><dc:format>image/svg+xml</dc:format><dc:type
           rdf:resource="http://purl.org/dc/dcmitype/StillImage" /></cc:Work></rdf:RDF></metadata><defs
     id="defs6" /><g
     transform="matrix(1.3333333,0,0,-1.3333333,0,1066.6667)"
     id="g10"><g
       transform="scale(0.1)"
       id="g12"><path
         id="path14"
         style="fill:#a84fae;fill-opacity:1;fill-rule:nonzero;stroke:none"
         d="m 6574.71,7261.5 259.16,-1211.32 -163.08,423.09 -161.14,788.23 h 65.06" /><path
         id="path16"
         style="fill:#dca2d6;fill-opacity:1;fill-rule:nonzero;stroke:none"
         d="m 6670.79,6473.27 163.08,-423.09 h -261.96 z" /><path
         id="path18"
         style="fill:#a44fae;fill-opacity:1;fill-rule:nonzero;stroke:none"
         d="m 6833.87,6050.18 -163.08,-361.06 -98.88,361.06 z" /><path
         id="path20"
         style="fill:#8e359f;fill-opacity:1;fill-rule:nonzero;stroke:none"
         d="m 6509.65,7261.5 161.14,-788.23 -98.88,-423.09 -124.33,423.09 -58.21,788.23 h 120.28" /><path
         id="path22"
         style="fill:#87309c;fill-opacity:1;fill-rule:nonzero;stroke:none"
         d="m 6571.91,6050.18 98.88,-361.06 H 6420.4 l -4.5,15.85 156.01,345.21" /><path
         id="path24"
         style="fill:#762292;fill-opacity:1;fill-rule:nonzero;stroke:none"
         d="m 6670.79,5689.12 -355.26,-139.75 104.87,139.75 z" /><path
         id="path26"
         style="fill:#a84fae;fill-opacity:1;fill-rule:nonzero;stroke:none"
         d="m 6447.58,6473.27 124.33,-423.09 h -256.38 z" /><path
         id="path28"
         style="fill:#762292;fill-opacity:1;fill-rule:nonzero;stroke:none"
         d="M 6571.91,6050.18 6415.9,5704.97 6315.53,6050.18 Z" /><path
         id="path30"
         style="fill:#f4d7ee;fill-opacity:1;fill-rule:nonzero;stroke:none"
         d="m 6389.37,7261.5 58.21,-788.23 -132.05,-423.09 -132.05,423.09 58.41,788.23 h 73.64 73.84" /><path
         id="path32"
         style="fill:#89329d;fill-opacity:1;fill-rule:nonzero;stroke:none"
         d="m 6415.9,5704.97 4.5,-15.85 h -209.52 l 4.49,15.85 100.16,345.21 100.37,-345.21" /><path
         id="path34"
         style="fill:#8e359f;fill-opacity:1;fill-rule:nonzero;stroke:none"
         d="m 6420.4,5689.12 -104.87,-139.75 -104.65,139.75 z" /><path
         id="path36"
         style="fill:#a84fae;fill-opacity:1;fill-rule:nonzero;stroke:none"
         d="m 6183.48,6473.27 132.05,-423.09 h -256.17 z" /><path
         id="path38"
         style="fill:#8e359f;fill-opacity:1;fill-rule:nonzero;stroke:none"
         d="m 6315.53,6050.18 -100.16,-345.21 -156.01,345.21 z" /><path
         id="path40"
         style="fill:#762292;fill-opacity:1;fill-rule:nonzero;stroke:none"
         d="m 6210.88,5689.12 104.65,-139.75 -355.27,139.75 z" /><path
         id="path42"
         style="fill:#dca2d6;fill-opacity:1;fill-rule:nonzero;stroke:none"
         d="m 6241.89,7261.5 -58.41,-788.23 -124.12,-423.09 -99.1,423.09 161.15,788.23 h 120.48" /><path
         id="path44"
         style="fill:#a44fae;fill-opacity:1;fill-rule:nonzero;stroke:none"
         d="m 6215.37,5704.97 -4.49,-15.85 h -250.62 l 99.1,361.06 156.01,-345.21" /><path
         id="path46"
         style="fill:#a84fae;fill-opacity:1;fill-rule:nonzero;stroke:none"
         d="m 6121.41,7261.5 -161.15,-788.23 -162.87,-423.09 258.96,1211.32 h 65.06" /><path
         id="path48"
         style="fill:#f4d7ee;fill-opacity:1;fill-rule:nonzero;stroke:none"
         d="m 5960.26,6473.27 99.1,-423.09 h -261.97 z" /><path
         id="path50"
         style="fill:#762292;fill-opacity:1;fill-rule:nonzero;stroke:none"
         d="m 6059.36,6050.18 -99.1,-361.06 -162.87,361.06 z" /><path
         id="path52"
         style="fill:#54c6c6;fill-opacity:1;fill-rule:nonzero;stroke:none"
         d="m 6835.79,4495.12 v -821.6 l -141.88,410.68 z" /><path
         id="path54"
         style="fill:#a7e2e9;fill-opacity:1;fill-rule:nonzero;stroke:none"
         d="M 6835.79,4495.12 6693.91,4084.2 6557.16,4480.78 Z" /><path
         id="path56"
         style="fill:#3ca3b0;fill-opacity:1;fill-rule:nonzero;stroke:none"
         d="m 6693.91,4084.2 141.88,-410.68 -278.63,14.35 z" /><path
         id="path58"
         style="fill:#54c6c6;fill-opacity:1;fill-rule:nonzero;stroke:none"
         d="m 6835.79,3673.52 -304.75,-304.75 26.12,319.1 z" /><path
         id="path60"
         style="fill:#caeef3;fill-opacity:1;fill-rule:nonzero;stroke:none"
         d="m 6835.79,4495.12 -278.63,-14.34 -26.12,319.1 z" /><path
         id="path62"
         style="fill:#54c6c6;fill-opacity:1;fill-rule:nonzero;stroke:none"
         d="M 6557.16,4480.78 6693.91,4084.2 6557.16,3687.87 Z" /><path
         id="path64"
         style="fill:#caeef3;fill-opacity:1;fill-rule:nonzero;stroke:none"
         d="m 6557.16,4480.78 v -792.91 l -483.05,792.91 z" /><path
         id="path66"
         style="fill:#54c6c6;fill-opacity:1;fill-rule:nonzero;stroke:none"
         d="m 6531.04,4799.88 26.12,-319.1 -241.42,168.66 z" /><path
         id="path68"
         style="fill:#a7e2e9;fill-opacity:1;fill-rule:nonzero;stroke:none"
         d="m 6074.11,4480.78 483.05,-792.91 h -483.05 z" /><path
         id="path70"
         style="fill:#3ca3b0;fill-opacity:1;fill-rule:nonzero;stroke:none"
         d="m 6557.16,3687.87 -26.12,-319.1 -215.3,150.45 z" /><path
         id="path72"
         style="fill:#caeef3;fill-opacity:1;fill-rule:nonzero;stroke:none"
         d="m 6557.16,4480.78 h -483.05 l 241.63,168.66 z" /><path
         id="path74"
         style="fill:#54c6c6;fill-opacity:1;fill-rule:nonzero;stroke:none"
         d="m 6557.16,3687.87 -241.42,-168.65 -241.63,168.65 z" /><path
         id="path76"
         style="fill:#caeef3;fill-opacity:1;fill-rule:nonzero;stroke:none"
         d="m 6531.04,4799.88 -215.3,-150.44 -215.53,150.44 z" /><path
         id="path78"
         style="fill:#2f848b;fill-opacity:1;fill-rule:nonzero;stroke:none"
         d="m 6531.04,3368.77 h -430.83 l 215.53,150.45 z" /><path
         id="path80"
         style="fill:#a7e2e9;fill-opacity:1;fill-rule:nonzero;stroke:none"
         d="m 6315.74,4649.44 -241.63,-168.66 26.1,319.1 z" /><path
         id="path82"
         style="fill:#3ca3b0;fill-opacity:1;fill-rule:nonzero;stroke:none"
         d="m 6315.74,3519.22 -215.53,-150.45 -26.1,319.1 z" /><path
         id="path84"
         style="fill:#54c6c6;fill-opacity:1;fill-rule:nonzero;stroke:none"
         d="m 6100.21,4799.88 -26.1,-319.1 -278.64,14.34 z" /><path
         id="path86"
         style="fill:#2f848b;fill-opacity:1;fill-rule:nonzero;stroke:none"
         d="m 6074.11,3687.87 26.1,-319.1 -304.74,304.75 z" /><path
         id="path88"
         style="fill:#a7e2e9;fill-opacity:1;fill-rule:nonzero;stroke:none"
         d="M 6074.11,4480.78 V 3687.87 L 5937.36,4084.2 Z" /><path
         id="path90"
         style="fill:#caeef3;fill-opacity:1;fill-rule:nonzero;stroke:none"
         d="M 6074.11,4480.78 5937.36,4084.2 5795.47,4495.12 Z" /><path
         id="path92"
         style="fill:#54c6c6;fill-opacity:1;fill-rule:nonzero;stroke:none"
         d="m 5937.36,4084.2 136.75,-396.33 -278.64,-14.35 z" /><path
         id="path94"
         style="fill:#a7e2e9;fill-opacity:1;fill-rule:nonzero;stroke:none"
         d="M 5795.47,4495.12 5937.36,4084.2 5795.47,3673.52 Z" /><path
         id="path96"
         style="fill:#c50f7c;fill-opacity:1;fill-rule:nonzero;stroke:none"
         d="m 7171.91,2051.39 -449.22,-490.94 -0.21,0.19 161.15,490.75 h 288.28" /><path
         id="path98"
         style="fill:#ea088e;fill-opacity:1;fill-rule:nonzero;stroke:none"
         d="m 7171.91,2051.39 h -288.28 v 231.77 z" /><path
         id="path100"
         style="fill:#f9afdb;fill-opacity:1;fill-rule:nonzero;stroke:none"
         d="m 6883.63,2283.16 v -231.77 l -389.29,231.58 29.55,188.73 359.74,-188.54" /><path
         id="path102"
         style="fill:#ef2ea1;fill-opacity:1;fill-rule:nonzero;stroke:none"
         d="m 6649.29,2471.7 234.34,-188.54 -359.74,188.54 z" /><path
         id="path104"
         style="fill:#ef2ea1;fill-opacity:1;fill-rule:nonzero;stroke:none"
         d="m 6883.63,2051.39 -161.15,-490.75 0.21,-0.19 -407.06,-444.75 -0.21,0.43 129.04,444.73 439.17,490.53" /><path
         id="path106"
         style="fill:#ea088e;fill-opacity:1;fill-rule:nonzero;stroke:none"
         d="m 6883.63,2051.39 -439.17,-490.53 142.12,490.53 z" /><path
         id="path108"
         style="fill:#ef2ea1;fill-opacity:1;fill-rule:nonzero;stroke:none"
         d="m 6883.63,2051.39 h -297.05 l -92.24,231.58 z" /><path
         id="path110"
         style="fill:#da0b85;fill-opacity:1;fill-rule:nonzero;stroke:none"
         d="m 6494.34,2282.97 92.24,-231.58 h -271.16 z" /><path
         id="path112"
         style="fill:#c50f7c;fill-opacity:1;fill-rule:nonzero;stroke:none"
         d="m 6586.58,2051.39 -142.12,-490.53 -129.04,490.53 z" /><path
         id="path114"
         style="fill:#f9afdb;fill-opacity:1;fill-rule:nonzero;stroke:none"
         d="m 6523.89,2471.7 -29.55,-188.73 -178.92,188.53 0.21,0.2 h 208.26" /><path
         id="path116"
         style="fill:#f277c2;fill-opacity:1;fill-rule:nonzero;stroke:none"
         d="m 6315.42,2471.5 178.92,-188.53 -178.92,-231.58 -178.92,231.58 178.92,188.53" /><path
         id="path118"
         style="fill:#ea088e;fill-opacity:1;fill-rule:nonzero;stroke:none"
         d="m 6444.46,1560.86 -129.04,-444.73 -128.84,444.51 128.84,490.75 129.04,-490.53" /><path
         id="path120"
         style="fill:#c50f7c;fill-opacity:1;fill-rule:nonzero;stroke:none"
         d="m 6186.58,1560.64 128.84,-444.51 -407.07,444.51 v 0.22 l -161.14,490.53 439.37,-490.75" /><path
         id="path122"
         style="fill:#fcd8ee;fill-opacity:1;fill-rule:nonzero;stroke:none"
         d="m 6315.42,2471.7 v -0.2 l -178.92,-188.53 -29.54,188.73 h 208.46" /><path
         id="path124"
         style="fill:#f9afdb;fill-opacity:1;fill-rule:nonzero;stroke:none"
         d="m 6136.5,2282.97 178.92,-231.58 h -271.16 z" /><path
         id="path126"
         style="fill:#ef2ea1;fill-opacity:1;fill-rule:nonzero;stroke:none"
         d="m 6315.42,2051.39 -128.84,-490.75 -142.32,490.75 z" /><path
         id="path128"
         style="fill:#ea088e;fill-opacity:1;fill-rule:nonzero;stroke:none"
         d="m 6044.26,2051.39 142.32,-490.75 -439.37,490.75 z" /><path
         id="path130"
         style="fill:#fcd8ee;fill-opacity:1;fill-rule:nonzero;stroke:none"
         d="m 6106.96,2471.7 29.54,-188.73 -389.29,-231.58 13.04,242.07 h 0.22 l 346.49,178.24" /><path
         id="path132"
         style="fill:#f277c2;fill-opacity:1;fill-rule:nonzero;stroke:none"
         d="m 6136.5,2282.97 -92.24,-231.58 h -297.05 z" /><path
         id="path134"
         style="fill:#f277c2;fill-opacity:1;fill-rule:nonzero;stroke:none"
         d="m 6106.96,2471.7 -346.49,-178.24 221.51,178.24 z" /><path
         id="path136"
         style="fill:#fcd8ee;fill-opacity:1;fill-rule:nonzero;stroke:none"
         d="m 5747.21,2051.39 161.14,-490.53 -448.99,490.53 z" /><path
         id="path138"
         style="fill:#f9afdb;fill-opacity:1;fill-rule:nonzero;stroke:none"
         d="m 5459.36,2051.39 300.89,242.07 -13.04,-242.07 z" /><path
         id="path140"
         style="fill:#ea088e;fill-opacity:1;fill-rule:nonzero;stroke:none"
         d="m 4395.39,4310.12 154.51,-558.81 h -160.51 v 558.81 h 6" /><path
         id="path142"
         style="fill:#c60f77;fill-opacity:1;fill-rule:nonzero;stroke:none"
         d="m 4549.9,3751.31 -160.51,-398.28 v 398.28 z" /><path
         id="path144"
         style="fill:#ef2ea1;fill-opacity:1;fill-rule:nonzero;stroke:none"
         d="m 4002.89,4970.14 392.5,-660.02 h -211.66 l -5.58,14.76 v 0.2 l -176.76,639.71 1.5,5.35" /><path
         id="path146"
         style="fill:#c50f7c;fill-opacity:1;fill-rule:nonzero;stroke:none"
         d="M 4389.39,3751.31 V 3353.03 H 4110.96 Z" /><path
         id="path148"
         style="fill:#c60f77;fill-opacity:1;fill-rule:nonzero;stroke:none"
         d="m 4389.39,4310.12 v -558.81 l -205.66,558.81 z" /><path
         id="path150"
         style="fill:#ea088e;fill-opacity:1;fill-rule:nonzero;stroke:none"
         d="m 4183.73,4310.12 205.66,-558.81 h -127.76 l -79.4,558.81 h 1.5" /><path
         id="path152"
         style="fill:#c60f77;fill-opacity:1;fill-rule:nonzero;stroke:none"
         d="m 4389.39,3751.31 -278.43,-398.28 150.67,398.28 z" /><path
         id="path154"
         style="fill:#9c1659;fill-opacity:1;fill-rule:nonzero;stroke:none"
         d="m 4389.39,3353.03 -386.5,-154.53 -1.5,2.14 109.57,152.39 h 278.43" /><path
         id="path156"
         style="fill:#ef32a2;fill-opacity:1;fill-rule:nonzero;stroke:none"
         d="m 4182.23,4310.12 79.4,-558.81 h -258.74 l 170.77,558.81 h 8.57" /><path
         id="path158"
         style="fill:#ef32a2;fill-opacity:1;fill-rule:nonzero;stroke:none"
         d="m 4261.63,3751.31 -150.67,-398.28 -108.07,398.28 z" /><path
         id="path160"
         style="fill:#f9afdb;fill-opacity:1;fill-rule:nonzero;stroke:none"
         d="m 4178.15,4325.08 v -0.2 l -4.49,-14.76 h -352.9 l 180.63,654.67 176.76,-639.71" /><path
         id="path162"
         style="fill:#fcd8ee;fill-opacity:1;fill-rule:nonzero;stroke:none"
         d="m 4173.66,4310.12 -170.77,-558.81 -182.13,558.81 z" /><path
         id="path164"
         style="fill:#da0b85;fill-opacity:1;fill-rule:nonzero;stroke:none"
         d="m 4002.89,3751.31 108.07,-398.28 h -218.93 z" /><path
         id="path166"
         style="fill:#c70f77;fill-opacity:1;fill-rule:nonzero;stroke:none"
         d="m 4110.96,3353.03 -109.57,-152.39 -109.36,152.39 z" /><path
         id="path168"
         style="fill:#f363b8;fill-opacity:1;fill-rule:nonzero;stroke:none"
         d="m 3820.76,4310.12 182.13,-558.81 h -261.52 z" /><path
         id="path170"
         style="fill:#9c1659;fill-opacity:1;fill-rule:nonzero;stroke:none"
         d="m 4002.89,3751.31 -110.86,-398.28 -150.66,398.28 z" /><path
         id="path172"
         style="fill:#fcd8ee;fill-opacity:1;fill-rule:nonzero;stroke:none"
         d="m 4000.74,4966.72 0.65,-1.93 -180.63,-654.67 H 3610.6 l 390.14,656.6" /><path
         id="path174"
         style="fill:#da0b85;fill-opacity:1;fill-rule:nonzero;stroke:none"
         d="m 4001.39,3200.64 -0.86,-1.28 -383.94,153.67 h 275.44 l 109.36,-152.39" /><path
         id="path176"
         style="fill:#ef34a3;fill-opacity:1;fill-rule:nonzero;stroke:none"
         d="m 3741.37,3751.31 150.66,-398.28 -278.01,398.08 v 0.2 h 127.35" /><path
         id="path178"
         style="fill:#ef32a2;fill-opacity:1;fill-rule:nonzero;stroke:none"
         d="m 3614.02,3751.11 278.01,-398.08 h -275.44 z" /><path
         id="path180"
         style="fill:#fcd8ee;fill-opacity:1;fill-rule:nonzero;stroke:none"
         d="m 3820.76,4310.12 -79.39,-558.81 h -127.35 v 0.21 l 206.74,558.6" /><path
         id="path182"
         style="fill:#f363b8;fill-opacity:1;fill-rule:nonzero;stroke:none"
         d="m 3820.76,4310.12 -206.74,-558.6 -3.42,558.6 z" /><path
         id="path184"
         style="fill:#ef34a3;fill-opacity:1;fill-rule:nonzero;stroke:none"
         d="m 3614.02,3751.11 2.57,-398.08 -160.51,398.28 h 157.94 v -0.2" /><path
         id="path186"
         style="fill:#f277c2;fill-opacity:1;fill-rule:nonzero;stroke:none"
         d="m 3614.02,3751.52 v -0.21 h -157.94 l 154.52,558.81 3.42,-558.6" /><path
         id="path188"
         style="fill:#a4e0de;fill-opacity:1;fill-rule:nonzero;stroke:none"
         d="m 4795.51,6405.45 h -423.34 l 362.32,304.97 h 0.22 c 39.16,-93.96 60.8,-196.91 60.8,-304.97" /><path
         id="path190"
         style="fill:#caeef3;fill-opacity:1;fill-rule:nonzero;stroke:none"
         d="m 4389.73,6405.45 h 405.78 c 0,-106.79 -21.2,-208.89 -59.51,-301.77 l -346.27,301.77" /><path
         id="path192"
         style="fill:#54c6c6;fill-opacity:1;fill-rule:nonzero;stroke:none"
         d="m 4736,6103.68 -471.69,40.65 h -0.22 l -260.89,261.12 h 368.97 17.56 L 4736,6103.68" /><path
         id="path194"
         style="fill:#62cbd1;fill-opacity:1;fill-rule:nonzero;stroke:none"
         d="M 4264.31,6144.33 4736,6103.68 c -40.24,-97.38 -99.09,-184.91 -172.72,-258.3 l -286.77,286.76 -12.2,12.19" /><path
         id="path196"
         style="fill:#a7e2e9;fill-opacity:1;fill-rule:nonzero;stroke:none"
         d="M 4734.49,6710.42 4372.17,6405.45 H 4003.2 l 260.89,261.09 12.42,12.41 457.98,31.47" /><path
         id="path198"
         style="fill:#54c6c6;fill-opacity:1;fill-rule:nonzero;stroke:none"
         d="m 4734.49,6710.42 -457.98,-31.47 286.77,286.8 c 72.56,-72.56 131.19,-159.25 171.21,-255.33" /><path
         id="path200"
         style="fill:#3ca3b0;fill-opacity:1;fill-rule:nonzero;stroke:none"
         d="m 4563.28,5845.38 v -0.24 c -72.54,-72.54 -159,-131.19 -255.31,-171.21 l -31.46,458.21 286.77,-286.76" /><path
         id="path202"
         style="fill:#a7e2e9;fill-opacity:1;fill-rule:nonzero;stroke:none"
         d="m 4563.28,6965.75 -286.77,-286.8 -12.42,-12.41 40.87,471.69 c 97.39,-40.23 184.92,-99.09 258.32,-172.48" /><path
         id="path204"
         style="fill:#2f848b;fill-opacity:1;fill-rule:nonzero;stroke:none"
         d="m 4276.51,6132.14 31.46,-458.21 -304.98,362.34 v 369.18 h 0.21 l 260.89,-261.12 h 0.22 l 12.2,-12.19" /><path
         id="path206"
         style="fill:#54c6c6;fill-opacity:1;fill-rule:nonzero;stroke:none"
         d="m 4002.99,6036.27 304.98,-362.34 c -93.74,-39.37 -196.9,-61.01 -304.98,-61.01 v 405.8 17.55" /><path
         id="path208"
         style="fill:#54c6c6;fill-opacity:1;fill-rule:nonzero;stroke:none"
         d="m 4304.96,7138.23 -40.87,-471.69 -260.89,-261.09 h -0.21 v 0.21 369.17 17.33 l 301.97,346.07" /><path
         id="path210"
         style="fill:#caeef3;fill-opacity:1;fill-rule:nonzero;stroke:none"
         d="m 4304.96,7138.23 -301.97,-346.07 v 405.79 c 107.01,0 208.89,-21.19 301.97,-59.72" /><path
         id="path212"
         style="fill:#2f848b;fill-opacity:1;fill-rule:nonzero;stroke:none"
         d="m 4002.99,6018.72 v -405.8 c -107,0 -208.87,21.2 -301.78,59.74 l 301.78,346.06" /><path
         id="path214"
         style="fill:#3ca3b0;fill-opacity:1;fill-rule:nonzero;stroke:none"
         d="m 4002.99,6036.27 v -17.55 l -301.78,-346.06 40.68,471.67 261.1,261.12 v -369.18" /><path
         id="path216"
         style="fill:#54c6c6;fill-opacity:1;fill-rule:nonzero;stroke:none"
         d="m 3633.81,6405.45 h -17.55 l -346.06,301.97 471.9,-40.88 260.89,-260.88 v -0.21 h -369.18" /><path
         id="path218"
         style="fill:#caeef3;fill-opacity:1;fill-rule:nonzero;stroke:none"
         d="m 4002.99,6774.83 v -369.17 l -260.89,260.88 -12.63,12.63 -31.25,457.99 304.77,-362.33" /><path
         id="path220"
         style="fill:#a7e2e9;fill-opacity:1;fill-rule:nonzero;stroke:none"
         d="m 4002.99,6792.16 v -17.33 l -304.77,362.33 c 93.74,39.17 196.7,60.79 304.77,60.79 v -405.79" /><path
         id="path222"
         style="fill:#a4e0de;fill-opacity:1;fill-rule:nonzero;stroke:none"
         d="m 3741.89,6144.33 -12.21,-12.42 -0.21,0.23 -457.98,-31.45 362.32,304.76 h 369.18 l -261.1,-261.12" /><path
         id="path224"
         style="fill:#a7e2e9;fill-opacity:1;fill-rule:nonzero;stroke:none"
         d="m 3742.1,6666.54 -471.9,40.88 c 40.01,97.38 99.09,185.12 172.51,258.33 h 0.2 l 286.56,-286.58 12.63,-12.63" /><path
         id="path226"
         style="fill:#62cbd1;fill-opacity:1;fill-rule:nonzero;stroke:none"
         d="m 3729.68,6131.91 12.21,12.42 -40.68,-471.67 c -97.58,40 -185.11,99.08 -258.5,172.48 l 286.97,286.77" /><path
         id="path228"
         style="fill:#2f848b;fill-opacity:1;fill-rule:nonzero;stroke:none"
         d="m 3729.68,6131.91 -286.97,-286.77 c -72.78,72.54 -131.42,159.24 -171.44,255.55 h 0.22 l 457.98,31.45 0.21,-0.23" /><path
         id="path230"
         style="fill:#54c6c6;fill-opacity:1;fill-rule:nonzero;stroke:none"
         d="m 3698.22,7137.16 31.25,-457.99 -286.56,286.58 c 72.55,72.76 159,131.18 255.31,171.41" /><path
         id="path232"
         style="fill:#3ca3b0;fill-opacity:1;fill-rule:nonzero;stroke:none"
         d="m 3633.81,6405.45 -362.32,-304.76 h -0.22 c -39.18,93.74 -60.79,196.66 -60.79,304.76 h 405.78 17.55" /><path
         id="path234"
         style="fill:#caeef3;fill-opacity:1;fill-rule:nonzero;stroke:none"
         d="m 3616.26,6405.45 h -405.78 c 0,107.01 21.2,208.88 59.72,301.97 l 346.06,-301.97" /><path
         id="path236"
         style="fill:#892f9b;fill-opacity:1;fill-rule:nonzero;stroke:none"
         d="m 4768.2,2110.66 v -633.92 l -139.74,312.67 z" /><path
         id="path238"
         style="fill:#933aa2;fill-opacity:1;fill-rule:nonzero;stroke:none"
         d="m 4320.05,2559.02 448.15,-448.36 -322.09,123.27 z" /><path
         id="path240"
         style="fill:#933aa2;fill-opacity:1;fill-rule:nonzero;stroke:none"
         d="m 4768.2,2110.66 -139.74,-321.25 h -284.65 l -6.21,4.52 430.6,316.73" /><path
         id="path242"
         style="fill:#be75c1;fill-opacity:1;fill-rule:nonzero;stroke:none"
         d="m 4628.46,1789.41 139.74,-312.67 -424.39,312.67 z" /><path
         id="path244"
         style="fill:#772292;fill-opacity:1;fill-rule:nonzero;stroke:none"
         d="m 4768.2,1476.74 -448.15,-448.36 123.06,317.81 z" /><path
         id="path246"
         style="fill:#772292;fill-opacity:1;fill-rule:nonzero;stroke:none"
         d="m 4768.2,2110.66 -430.6,-316.73 -97.38,234.14 0.22,0.21 2.78,2.76 524.98,79.62" /><path
         id="path248"
         style="fill:#be75c1;fill-opacity:1;fill-rule:nonzero;stroke:none"
         d="m 4768.2,2110.66 -524.98,-79.62 202.89,202.89 z" /><path
         id="path250"
         style="fill:#933aa2;fill-opacity:1;fill-rule:nonzero;stroke:none"
         d="m 4768.2,1476.74 -325.09,-130.55 -202.03,202.05 -1.29,8.99 528.41,-80.49" /><path
         id="path252"
         style="fill:#892f9b;fill-opacity:1;fill-rule:nonzero;stroke:none"
         d="m 4343.81,1789.41 424.39,-312.67 -528.41,80.49 97.81,236.7 6.21,-4.52" /><path
         id="path254"
         style="fill:#edc6e6;fill-opacity:1;fill-rule:nonzero;stroke:none"
         d="m 4320.05,2559.02 126.06,-325.09 -202.89,-202.89 -3.84,-0.65 80.67,528.63" /><path
         id="path256"
         style="fill:#be75c1;fill-opacity:1;fill-rule:nonzero;stroke:none"
         d="m 4443.11,1346.19 -123.06,-317.81 -78.97,519.86 z" /><path
         id="path258"
         style="fill:#edc6e6;fill-opacity:1;fill-rule:nonzero;stroke:none"
         d="m 4240.22,2028.07 97.38,-234.14 -97.81,-236.7 -236.49,-98.03 -236.69,97.81 -0.86,2.13 474.47,468.93" /><path
         id="path260"
         style="fill:#f7dcef;fill-opacity:1;fill-rule:nonzero;stroke:none"
         d="m 4320.05,2559.02 -80.67,-528.63 -236.72,97.83 z" /><path
         id="path262"
         style="fill:#edc6e6;fill-opacity:1;fill-rule:nonzero;stroke:none"
         d="m 4320.05,2559.02 -317.39,-430.8 v 290.84 z" /><path
         id="path264"
         style="fill:#892f9b;fill-opacity:1;fill-rule:nonzero;stroke:none"
         d="m 4241.08,1548.24 78.97,-519.86 -316.75,430.82 236.49,98.03 1.29,-8.99" /><path
         id="path266"
         style="fill:#933aa2;fill-opacity:1;fill-rule:nonzero;stroke:none"
         d="m 4003.3,1459.2 316.75,-430.82 -321.45,135.25 0.21,289.36 4.49,6.21" /><path
         id="path268"
         style="fill:#dca2d6;fill-opacity:1;fill-rule:nonzero;stroke:none"
         d="m 4320.05,2559.02 -317.39,-139.96 -316.74,139.96 z" /><path
         id="path270"
         style="fill:#772292;fill-opacity:1;fill-rule:nonzero;stroke:none"
         d="m 4320.05,1028.38 h -634.13 l 312.68,135.25 z" /><path
         id="path272"
         style="fill:#f7dcef;fill-opacity:1;fill-rule:nonzero;stroke:none"
         d="m 4239.38,2030.39 0.84,-2.32 -474.47,-468.93 -97.39,234.34 90.96,220.25 6.85,16.47 236.49,98.02 236.72,-97.83" /><path
         id="path274"
         style="fill:#be75c1;fill-opacity:1;fill-rule:nonzero;stroke:none"
         d="m 3998.81,1452.99 -312.89,-424.61 80.69,528.63 236.69,-97.81 -4.49,-6.21" /><path
         id="path276"
         style="fill:#f7dcef;fill-opacity:1;fill-rule:nonzero;stroke:none"
         d="m 4002.66,2419.06 v -290.84 l -316.74,430.8 z" /><path
         id="path278"
         style="fill:#edc6e6;fill-opacity:1;fill-rule:nonzero;stroke:none"
         d="m 3685.92,2559.02 316.74,-430.8 -236.49,-98.02 z" /><path
         id="path280"
         style="fill:#892f9b;fill-opacity:1;fill-rule:nonzero;stroke:none"
         d="m 3998.81,1452.99 -0.21,-289.36 -312.68,-135.25 z" /><path
         id="path282"
         style="fill:#edc6e6;fill-opacity:1;fill-rule:nonzero;stroke:none"
         d="m 3766.61,1557.01 -80.69,-528.63 -130.54,320.6 205.66,205.67 1.71,1.7 3.86,0.66" /><path
         id="path284"
         style="fill:#dca2d6;fill-opacity:1;fill-rule:nonzero;stroke:none"
         d="m 3685.92,2559.02 80.25,-528.82 -2.13,0.84 -205.67,205.7 127.55,322.28" /><path
         id="path286"
         style="fill:#be75c1;fill-opacity:1;fill-rule:nonzero;stroke:none"
         d="m 3766.17,2030.2 -6.85,-16.47 -90.96,-220.25 -430.59,317.18 528.4,-80.46" /><path
         id="path288"
         style="fill:#edc6e6;fill-opacity:1;fill-rule:nonzero;stroke:none"
         d="m 3766.17,2030.2 -528.4,80.46 320.6,126.08 205.67,-205.7 2.13,-0.84" /><path
         id="path290"
         style="fill:#892f9b;fill-opacity:1;fill-rule:nonzero;stroke:none"
         d="m 3668.36,1793.48 97.39,-234.34 -3,-2.79 -524.98,-79.61 427.6,314.61 2.99,2.13" /><path
         id="path292"
         style="fill:#933aa2;fill-opacity:1;fill-rule:nonzero;stroke:none"
         d="m 3762.75,1556.35 -1.71,-1.7 -205.66,-205.67 -317.61,127.76 524.98,79.61" /><path
         id="path294"
         style="fill:#be75c1;fill-opacity:1;fill-rule:nonzero;stroke:none"
         d="m 3685.92,2559.02 -127.55,-322.28 -320.6,-126.08 z" /><path
         id="path296"
         style="fill:#be75c1;fill-opacity:1;fill-rule:nonzero;stroke:none"
         d="m 3555.38,1348.98 130.54,-320.6 -448.15,448.36 z" /><path
         id="path298"
         style="fill:#dca2d6;fill-opacity:1;fill-rule:nonzero;stroke:none"
         d="m 3668.36,1793.48 -2.99,-2.13 -1.5,2.13 h -290.84 l -135.26,317.18 430.59,-317.18" /><path
         id="path300"
         style="fill:#edc6e6;fill-opacity:1;fill-rule:nonzero;stroke:none"
         d="m 3663.87,1793.48 1.5,-2.13 -427.6,-314.61 135.26,316.74 h 290.84" /><path
         id="path302"
         style="fill:#f7dcef;fill-opacity:1;fill-rule:nonzero;stroke:none"
         d="m 3237.77,2110.66 135.26,-317.18 -135.26,-316.74 z" /><path
         id="path304"
         style="fill:#3ca3b0;fill-opacity:1;fill-rule:nonzero;stroke:none"
         d="m 2129.2,2014.9 26.75,-241.4 -283.57,127.96 254.69,113.23 2.13,0.21" /><path
         id="path306"
         style="fill:#54c6c6;fill-opacity:1;fill-rule:nonzero;stroke:none"
         d="m 2155.95,1773.5 -28.88,-237.15 -259.83,120.08 z" /><path
         id="path308"
         style="fill:#a7e2e9;fill-opacity:1;fill-rule:nonzero;stroke:none"
         d="m 2155.95,1773.5 -288.71,-117.07 -267.73,123.9 272.87,121.13 283.57,-127.96" /><path
         id="path310"
         style="fill:#2f848b;fill-opacity:1;fill-rule:nonzero;stroke:none"
         d="m 2127.07,2033.95 2.13,-19.05 -2.13,-0.21 -254.69,-113.23 173.58,381.37 81.11,-248.88" /><path
         id="path312"
         style="fill:#a7e2e9;fill-opacity:1;fill-rule:nonzero;stroke:none"
         d="m 2127.07,1536.35 -92.67,-260.45 -193.92,369.63 26.76,10.9 259.83,-120.08" /><path
         id="path314"
         style="fill:#caeef3;fill-opacity:1;fill-rule:nonzero;stroke:none"
         d="m 1872.38,2520.18 173.58,-237.35 -349.73,-219.37 z" /><path
         id="path316"
         style="fill:#54c6c6;fill-opacity:1;fill-rule:nonzero;stroke:none"
         d="m 2045.96,2282.83 -173.58,-381.37 -272.87,-121.13 -10.7,4.71 107.42,278.42 349.73,219.37" /><path
         id="path318"
         style="fill:#3ca3b0;fill-opacity:1;fill-rule:nonzero;stroke:none"
         d="m 1840.48,1645.53 193.92,-369.63 -326.37,200.33 -116,300.66 7.48,3.44 267.73,-123.9 -26.76,-10.9" /><path
         id="path320"
         style="fill:#54c6c6;fill-opacity:1;fill-rule:nonzero;stroke:none"
         d="m 2034.4,1275.9 -162.02,-225.78 -164.35,426.11 z" /><path
         id="path322"
         style="fill:#a7e2e9;fill-opacity:1;fill-rule:nonzero;stroke:none"
         d="m 1872.38,2520.18 -176.15,-456.72 -107.42,589.65 z" /><path
         id="path324"
         style="fill:#2f848b;fill-opacity:1;fill-rule:nonzero;stroke:none"
         d="m 1708.03,1476.23 164.35,-426.11 -283.57,-115.8 107.42,549.18 11.8,-7.27" /><path
         id="path326"
         style="fill:#54c6c6;fill-opacity:1;fill-rule:nonzero;stroke:none"
         d="m 1708.03,1476.23 -11.8,7.27 -107.42,-549.18 -107.45,549.18 -11.76,-7.27 114.72,297.27 7.71,3.39 116,-300.66" /><path
         id="path328"
         style="fill:#caeef3;fill-opacity:1;fill-rule:nonzero;stroke:none"
         d="m 1588.81,2653.11 107.42,-589.65 -107.42,-278.42 -107.45,278.42 107.45,589.65" /><path
         id="path330"
         style="fill:#a7e2e9;fill-opacity:1;fill-rule:nonzero;stroke:none"
         d="m 1588.81,2653.11 -107.45,-589.65 -176.12,456.72 z" /><path
         id="path332"
         style="fill:#a7e2e9;fill-opacity:1;fill-rule:nonzero;stroke:none"
         d="m 1481.36,2063.46 107.45,-278.42 -251.68,116.42 -205.46,381.37 349.69,-219.37" /><path
         id="path334"
         style="fill:#caeef3;fill-opacity:1;fill-rule:nonzero;stroke:none"
         d="m 1337.13,1901.46 251.68,-116.42 -4.49,-11.54 -283.58,-126.08 -279.08,126.08 315.47,127.96" /><path
         id="path336"
         style="fill:#3ca3b0;fill-opacity:1;fill-rule:nonzero;stroke:none"
         d="m 1481.36,1483.5 107.45,-549.18 -283.57,115.8 164.36,426.11 11.76,7.27" /><path
         id="path338"
         style="fill:#2f848b;fill-opacity:1;fill-rule:nonzero;stroke:none"
         d="m 1584.32,1773.5 -114.72,-297.27 -326.38,-200.33 162.02,369.63 -4.5,1.89 283.58,126.08" /><path
         id="path340"
         style="fill:#caeef3;fill-opacity:1;fill-rule:nonzero;stroke:none"
         d="m 1305.24,2520.18 176.12,-456.72 -349.69,219.37 z" /><path
         id="path342"
         style="fill:#54c6c6;fill-opacity:1;fill-rule:nonzero;stroke:none"
         d="M 1469.6,1476.23 1305.24,1050.12 1143.22,1275.9 Z" /><path
         id="path344"
         style="fill:#caeef3;fill-opacity:1;fill-rule:nonzero;stroke:none"
         d="m 1131.67,2282.83 205.46,-381.37 -286.58,132.49 z" /><path
         id="path346"
         style="fill:#a7e2e9;fill-opacity:1;fill-rule:nonzero;stroke:none"
         d="m 1337.13,1901.46 -315.47,-127.96 28.89,260.45 z" /><path
         id="path348"
         style="fill:#3ca3b0;fill-opacity:1;fill-rule:nonzero;stroke:none"
         d="m 1305.24,1645.53 -162.02,-369.63 -92.67,260.45 250.19,111.07 4.5,-1.89" /><path
         id="path350"
         style="fill:#54c6c6;fill-opacity:1;fill-rule:nonzero;stroke:none"
         d="m 1021.66,1773.5 279.08,-126.08 -250.19,-111.07 z" /><path
         id="path352"
         style="fill:#943ba3;fill-opacity:1;fill-rule:nonzero;stroke:none"
         d="m 2349.53,4288.17 v -407.7 l -266.66,203.95 z" /><path
         id="path354"
         style="fill:#933aa2;fill-opacity:1;fill-rule:nonzero;stroke:none"
         d="m 2145.57,4641.3 203.96,-353.13 -333.02,43.24 z" /><path
         id="path356"
         style="fill:#943ba3;fill-opacity:1;fill-rule:nonzero;stroke:none"
         d="m 2349.53,3880.47 -203.96,-352.91 -129.06,309.9 z" /><path
         id="path358"
         style="fill:#dca2d6;fill-opacity:1;fill-rule:nonzero;stroke:none"
         d="m 2349.53,4288.17 -266.66,-203.75 -66.36,246.99 z" /><path
         id="path360"
         style="fill:#be75c1;fill-opacity:1;fill-rule:nonzero;stroke:none"
         d="m 2349.53,3880.47 -333.02,-43.01 66.36,246.96 z" /><path
         id="path362"
         style="fill:#be75c1;fill-opacity:1;fill-rule:nonzero;stroke:none"
         d="m 2145.57,4641.3 -129.06,-309.89 -180.83,180.83 z" /><path
         id="path364"
         style="fill:#892f9b;fill-opacity:1;fill-rule:nonzero;stroke:none"
         d="m 2016.51,3837.46 129.06,-309.9 -309.89,129.04 z" /><path
         id="path366"
         style="fill:#dca2d6;fill-opacity:1;fill-rule:nonzero;stroke:none"
         d="m 2145.57,4641.3 -309.89,-129.06 -43.03,332.81 z" /><path
         id="path368"
         style="fill:#772292;fill-opacity:1;fill-rule:nonzero;stroke:none"
         d="m 2145.57,3527.56 -352.92,-203.93 43.03,332.97 z" /><path
         id="path370"
         style="fill:#be75c1;fill-opacity:1;fill-rule:nonzero;stroke:none"
         d="m 2016.51,4331.41 66.36,-246.99 -268.38,60.36 z" /><path
         id="path372"
         style="fill:#933aa2;fill-opacity:1;fill-rule:nonzero;stroke:none"
         d="m 2082.87,4084.42 -66.36,-246.96 -202.02,186.39 z" /><path
         id="path374"
         style="fill:#943ba3;fill-opacity:1;fill-rule:nonzero;stroke:none"
         d="m 2082.87,4084.42 -268.38,-60.57 v 120.93 z" /><path
         id="path376"
         style="fill:#943ba3;fill-opacity:1;fill-rule:nonzero;stroke:none"
         d="m 2016.51,3837.46 -180.83,-180.86 -81.76,262.64 z" /><path
         id="path378"
         style="fill:#dca2d6;fill-opacity:1;fill-rule:nonzero;stroke:none"
         d="m 2016.51,4331.41 -202.02,-186.63 -60.57,104.87 z" /><path
         id="path380"
         style="fill:#933aa2;fill-opacity:1;fill-rule:nonzero;stroke:none"
         d="m 2016.51,4331.41 -262.59,-81.76 81.76,262.59 z" /><path
         id="path382"
         style="fill:#be75c1;fill-opacity:1;fill-rule:nonzero;stroke:none"
         d="m 2016.51,3837.46 -262.59,81.78 60.57,104.61 z" /><path
         id="path384"
         style="fill:#f7dcef;fill-opacity:1;fill-rule:nonzero;stroke:none"
         d="m 1792.65,4845.05 43.03,-332.81 -246.98,66.13 z" /><path
         id="path386"
         style="fill:#be75c1;fill-opacity:1;fill-rule:nonzero;stroke:none"
         d="m 1835.68,4512.24 -81.76,-262.59 -104.66,60.36 z" /><path
         id="path388"
         style="fill:#dca2d6;fill-opacity:1;fill-rule:nonzero;stroke:none"
         d="m 1835.68,4512.24 -186.42,-202.23 -60.56,268.36 z" /><path
         id="path390"
         style="fill:#772292;fill-opacity:1;fill-rule:nonzero;stroke:none"
         d="m 1753.92,3919.24 81.76,-262.64 -186.42,202.05 z" /><path
         id="path392"
         style="fill:#892f9b;fill-opacity:1;fill-rule:nonzero;stroke:none"
         d="M 1649.26,3858.65 1835.68,3656.6 1588.7,3590.25 Z" /><path
         id="path394"
         style="fill:#933aa2;fill-opacity:1;fill-rule:nonzero;stroke:none"
         d="m 1835.68,3656.6 -43.03,-332.97 -203.95,266.62 z" /><path
         id="path396"
         style="fill:#f7dcef;fill-opacity:1;fill-rule:nonzero;stroke:none"
         d="m 1814.49,4144.78 v -120.93 l -60.57,-104.61 -330.45,330.41 104.88,60.36 h 120.91 l 104.66,-60.36 60.57,-104.87" /><path
         id="path398"
         style="fill:#edc6e6;fill-opacity:1;fill-rule:nonzero;stroke:none"
         d="M 1792.65,4845.05 1588.7,4578.37 1384.96,4845.05 Z" /><path
         id="path400"
         style="fill:#892f9b;fill-opacity:1;fill-rule:nonzero;stroke:none"
         d="m 1588.7,3590.25 203.95,-266.62 h -407.69 z" /><path
         id="path402"
         style="fill:#dca2d6;fill-opacity:1;fill-rule:nonzero;stroke:none"
         d="m 1753.92,3919.24 -104.66,-60.59 h -120.91 l -104.88,60.59 -60.34,104.61 v 120.93 l 60.34,104.87 330.45,-330.41" /><path
         id="path404"
         style="fill:#933aa2;fill-opacity:1;fill-rule:nonzero;stroke:none"
         d="m 1588.7,4578.37 60.56,-268.36 h -120.91 z" /><path
         id="path406"
         style="fill:#933aa2;fill-opacity:1;fill-rule:nonzero;stroke:none"
         d="m 1649.26,3858.65 -60.56,-268.4 -60.35,268.4 z" /><path
         id="path408"
         style="fill:#be75c1;fill-opacity:1;fill-rule:nonzero;stroke:none"
         d="m 1384.96,4845.05 203.74,-266.68 -246.97,-66.13 z" /><path
         id="path410"
         style="fill:#f7dcef;fill-opacity:1;fill-rule:nonzero;stroke:none"
         d="m 1588.7,4578.37 -60.35,-268.36 -186.62,202.23 z" /><path
         id="path412"
         style="fill:#943ba3;fill-opacity:1;fill-rule:nonzero;stroke:none"
         d="m 1528.35,3858.65 60.35,-268.4 -246.97,66.35 z" /><path
         id="path414"
         style="fill:#772292;fill-opacity:1;fill-rule:nonzero;stroke:none"
         d="m 1588.7,3590.25 -203.74,-266.62 -43.23,332.97 z" /><path
         id="path416"
         style="fill:#dca2d6;fill-opacity:1;fill-rule:nonzero;stroke:none"
         d="m 1341.73,4512.24 186.62,-202.23 -104.88,-60.36 z" /><path
         id="path418"
         style="fill:#892f9b;fill-opacity:1;fill-rule:nonzero;stroke:none"
         d="m 1528.35,3858.65 -186.62,-202.05 81.74,262.64 z" /><path
         id="path420"
         style="fill:#edc6e6;fill-opacity:1;fill-rule:nonzero;stroke:none"
         d="m 1341.73,4512.24 81.74,-262.59 -262.59,81.76 z" /><path
         id="path422"
         style="fill:#943ba3;fill-opacity:1;fill-rule:nonzero;stroke:none"
         d="m 1423.47,4249.65 -60.34,-104.87 -202.25,186.63 z" /><path
         id="path424"
         style="fill:#772292;fill-opacity:1;fill-rule:nonzero;stroke:none"
         d="m 1363.13,4023.85 60.34,-104.61 -262.59,-81.78 z" /><path
         id="path426"
         style="fill:#dca2d6;fill-opacity:1;fill-rule:nonzero;stroke:none"
         d="m 1423.47,3919.24 -81.74,-262.64 -180.85,180.86 z" /><path
         id="path428"
         style="fill:#f7dcef;fill-opacity:1;fill-rule:nonzero;stroke:none"
         d="m 1384.96,4845.05 -43.23,-332.81 -309.9,129.06 z" /><path
         id="path430"
         style="fill:#933aa2;fill-opacity:1;fill-rule:nonzero;stroke:none"
         d="m 1341.73,3656.6 43.23,-332.97 -353.13,203.93 z" /><path
         id="path432"
         style="fill:#892f9b;fill-opacity:1;fill-rule:nonzero;stroke:none"
         d="m 1363.13,4144.78 v -120.93 l -268.37,60.57 z" /><path
         id="path434"
         style="fill:#be75c1;fill-opacity:1;fill-rule:nonzero;stroke:none"
         d="m 1363.13,4144.78 -268.37,-60.36 66.12,246.99 z" /><path
         id="path436"
         style="fill:#933aa2;fill-opacity:1;fill-rule:nonzero;stroke:none"
         d="m 1363.13,4023.85 -202.25,-186.39 -66.12,246.96 z" /><path
         id="path438"
         style="fill:#dca2d6;fill-opacity:1;fill-rule:nonzero;stroke:none"
         d="M 1341.73,4512.24 1160.88,4331.41 1031.83,4641.3 Z" /><path
         id="path440"
         style="fill:#892f9b;fill-opacity:1;fill-rule:nonzero;stroke:none"
         d="m 1341.73,3656.6 -309.9,-129.04 129.05,309.9 z" /><path
         id="path442"
         style="fill:#be75c1;fill-opacity:1;fill-rule:nonzero;stroke:none"
         d="m 1031.83,4641.3 129.05,-309.89 -332.79,-43.24 z" /><path
         id="path444"
         style="fill:#f7dcef;fill-opacity:1;fill-rule:nonzero;stroke:none"
         d="m 1160.88,4331.41 -66.12,-246.99 -266.67,203.75 z" /><path
         id="path446"
         style="fill:#892f9b;fill-opacity:1;fill-rule:nonzero;stroke:none"
         d="m 1094.76,4084.42 66.12,-246.96 -332.79,43.01 z" /><path
         id="path448"
         style="fill:#772292;fill-opacity:1;fill-rule:nonzero;stroke:none"
         d="m 1160.88,3837.46 -129.05,-309.9 -203.74,352.91 z" /><path
         id="path450"
         style="fill:#dca2d6;fill-opacity:1;fill-rule:nonzero;stroke:none"
         d="M 1094.76,4084.42 828.09,3880.47 v 407.7 z" /><path
         id="path452"
         style="fill:#ed098e;fill-opacity:1;fill-rule:nonzero;stroke:none"
         d="m 2241.25,6207.8 0.21,-1.5 -0.21,-1.07 -210.17,-170.36 -113.86,255.53 89.24,172.51 234.79,-255.11" /><path
         id="path454"
         style="fill:#ee35a4;fill-opacity:1;fill-rule:nonzero;stroke:none"
         d="m 2241.25,6205.23 -61.01,-277.57 -149.16,107.21 z" /><path
         id="path456"
         style="fill:#bf127b;fill-opacity:1;fill-rule:nonzero;stroke:none"
         d="m 2184.11,6505.71 57.14,-297.91 -234.79,255.11 z" /><path
         id="path458"
         style="fill:#ee35a4;fill-opacity:1;fill-rule:nonzero;stroke:none"
         d="m 2184.11,6505.92 v -0.21 l -177.65,-42.8 6.21,394 171.44,-350.99" /><path
         id="path460"
         style="fill:#d80f8c;fill-opacity:1;fill-rule:nonzero;stroke:none"
         d="m 2031.08,6034.87 149.16,-107.21 -0.21,-0.44 -138.69,-199.68 -10.26,307.33" /><path
         id="path462"
         style="fill:#ee35a4;fill-opacity:1;fill-rule:nonzero;stroke:none"
         d="m 2031.08,6034.87 10.26,-307.33 -0.84,-1.28 -227.93,47.09 40.02,230.92 178.49,30.6" /><path
         id="path464"
         style="fill:#f263b9;fill-opacity:1;fill-rule:nonzero;stroke:none"
         d="m 2040.5,5726.26 -0.23,-0.2 -200.09,-142.98 -27.61,190.27 227.93,-47.09" /><path
         id="path466"
         style="fill:#9e1662;fill-opacity:1;fill-rule:nonzero;stroke:none"
         d="m 1917.22,6290.4 113.86,-255.53 -178.49,-30.6 h -1.07 l 64.63,286.13 h 1.07" /><path
         id="path468"
         style="fill:#f793ce;fill-opacity:1;fill-rule:nonzero;stroke:none"
         d="m 2011.6,6859.05 1.07,-2.14 -6.21,-394 -244.83,143.16 -40.67,367.26 289.99,-113.63 0.65,-0.65" /><path
         id="path470"
         style="fill:#ee35a4;fill-opacity:1;fill-rule:nonzero;stroke:none"
         d="m 1803.79,7081.84 207.16,-222.14 -289.99,113.63 z" /><path
         id="path472"
         style="fill:#fac0e3;fill-opacity:1;fill-rule:nonzero;stroke:none"
         d="m 2006.46,6462.91 -89.24,-172.51 h -1.07 l -135.48,292.55 -19.68,22.26 v 0.23 l 0.64,0.63 244.83,-143.16" /><path
         id="path474"
         style="fill:#ee35a4;fill-opacity:1;fill-rule:nonzero;stroke:none"
         d="m 1780.67,6582.95 135.48,-292.55 -64.63,-286.13 -261.75,-150.45 -0.85,-0.44 -262.82,150.89 434.89,600.94 19.68,-22.26" /><path
         id="path476"
         style="fill:#ed098e;fill-opacity:1;fill-rule:nonzero;stroke:none"
         d="m 1852.59,6004.27 -40.02,-230.92 -222.59,80.03 -0.21,0.44 261.75,150.45 h 1.07" /><path
         id="path478"
         style="fill:#e844aa;fill-opacity:1;fill-rule:nonzero;stroke:none"
         d="m 1840.18,5583.08 -0.86,-0.65 -249.11,-44.93 222.36,235.85 27.61,-190.27" /><path
         id="path480"
         style="fill:#9e1662;fill-opacity:1;fill-rule:nonzero;stroke:none"
         d="M 1812.57,5773.35 1590.21,5537.5 h -0.23 v 315.88 l 222.59,-80.03" /><path
         id="path482"
         style="fill:#fac0e3;fill-opacity:1;fill-rule:nonzero;stroke:none"
         d="m 1803.79,7081.84 -82.83,-108.51 -130.33,298.76 195.19,-170.98 17.97,-19.27" /><path
         id="path484"
         style="fill:#fac0e3;fill-opacity:1;fill-rule:nonzero;stroke:none"
         d="m 1720.96,6973.33 40.67,-367.26 -0.64,-0.63 -171.63,195.82 0.62,0.43 130.98,171.64" /><path
         id="path486"
         style="fill:#f263b9;fill-opacity:1;fill-rule:nonzero;stroke:none"
         d="m 1760.99,6605.44 v -0.23 l -434.89,-600.94 -64.63,286.13 135.47,292.55 20.12,23.12 171.86,195.62 0.44,-0.43 171.63,-195.82" /><path
         id="path488"
         style="fill:#f263b9;fill-opacity:1;fill-rule:nonzero;stroke:none"
         d="m 1590.63,7272.09 130.33,-298.76 -130.98,-171.64 v 471.05 l 0.65,-0.65" /><path
         id="path490"
         style="fill:#ed098e;fill-opacity:1;fill-rule:nonzero;stroke:none"
         d="M 1589.98,5853.38 V 5537.5 l -1.06,-0.22 -222.8,236.07 222.8,80.03 0.85,0.44 0.21,-0.44" /><path
         id="path492"
         style="fill:#ee35a4;fill-opacity:1;fill-rule:nonzero;stroke:none"
         d="m 1589.98,7272.74 v -471.05 l -0.62,-0.43 -0.44,0.43 -131.19,171.64 131.19,300.27 1.06,-0.86" /><path
         id="path494"
         style="fill:#fac0e3;fill-opacity:1;fill-rule:nonzero;stroke:none"
         d="m 1588.92,7273.6 -131.19,-300.27 -83.25,109.16 17.33,18.62 197.11,172.49" /><path
         id="path496"
         style="fill:#f793ce;fill-opacity:1;fill-rule:nonzero;stroke:none"
         d="m 1457.73,6973.33 131.19,-171.64 -171.86,-195.62 z" /><path
         id="path498"
         style="fill:#d80f8c;fill-opacity:1;fill-rule:nonzero;stroke:none"
         d="m 1366.12,5773.35 222.8,-236.07 -250.4,45.15 z" /><path
         id="path500"
         style="fill:#d80f8c;fill-opacity:1;fill-rule:nonzero;stroke:none"
         d="m 1588.92,5853.38 -222.8,-80.03 -40.02,230.92 z" /><path
         id="path502"
         style="fill:#f263b9;fill-opacity:1;fill-rule:nonzero;stroke:none"
         d="m 1374.48,7082.49 83.25,-109.16 -291.7,-114.28 z" /><path
         id="path504"
         style="fill:#ee35a4;fill-opacity:1;fill-rule:nonzero;stroke:none"
         d="m 1457.73,6973.33 -40.67,-367.26 -244.83,-143.16 -6.2,396.14 291.7,114.28" /><path
         id="path506"
         style="fill:#fac0e3;fill-opacity:1;fill-rule:nonzero;stroke:none"
         d="m 1417.06,6606.07 -20.12,-23.12 -135.47,-292.55 -89.24,172.51 244.83,143.16" /><path
         id="path508"
         style="fill:#ee35a4;fill-opacity:1;fill-rule:nonzero;stroke:none"
         d="m 1326.1,6004.27 40.02,-230.92 -228.78,-47.29 10.27,308.81 178.49,-30.6" /><path
         id="path510"
         style="fill:#9e1662;fill-opacity:1;fill-rule:nonzero;stroke:none"
         d="m 1366.12,5773.35 -27.6,-190.92 -201.18,143.63 z" /><path
         id="path512"
         style="fill:#ed098e;fill-opacity:1;fill-rule:nonzero;stroke:none"
         d="m 1261.47,6290.4 64.63,-286.13 -178.49,30.6 z" /><path
         id="path514"
         style="fill:#bf127b;fill-opacity:1;fill-rule:nonzero;stroke:none"
         d="m 1172.23,6462.91 89.24,-172.51 -113.86,-255.53 -211.45,171.43 236.07,256.61" /><path
         id="path516"
         style="fill:#f793ce;fill-opacity:1;fill-rule:nonzero;stroke:none"
         d="m 1166.03,6859.05 6.2,-396.14 -178.714,43.01 z" /><path
         id="path518"
         style="fill:#ea30a2;fill-opacity:1;fill-rule:nonzero;stroke:none"
         d="M 1172.23,6462.91 936.16,6206.3 993.516,6505.92 Z" /><path
         id="path520"
         style="fill:#9e1662;fill-opacity:1;fill-rule:nonzero;stroke:none"
         d="m 1147.61,6034.87 -10.27,-308.81 -139.547,201.16 z" /><path
         id="path522"
         style="fill:#ee35a4;fill-opacity:1;fill-rule:nonzero;stroke:none"
         d="M 1147.61,6034.87 997.793,5927.22 936.16,6206.3 Z" /><path
         id="path524"
         style="fill:#a4a6a9;fill-opacity:1;fill-rule:nonzero;stroke:none"
         d="m 2756.54,295.23 c 0,-7.031 1.17,-13 3.5,-17.941 2.34,-4.949 5.53,-8.66 9.57,-11.16 4.06,-2.5 8.48,-3.77 13.26,-3.77 4.87,0 9.32,1.192 13.33,3.582 4.01,2.36 7.23,6.008 9.62,10.918 2.4,4.903 3.58,11.051 3.58,18.371 0,6.922 -1.18,12.86 -3.58,17.84 -2.39,4.961 -5.64,8.75 -9.73,11.379 -4.08,2.621 -8.55,3.93 -13.4,3.93 -5.07,0 -9.58,-1.348 -13.59,-4.02 -3.97,-2.699 -7.05,-6.55 -9.26,-11.589 -2.21,-5.04 -3.3,-10.879 -3.3,-17.54 m 54.41,-38.078 v 2.578 c -3.73,-3.992 -7.4,-7.25 -11,-9.73 -3.62,-2.52 -7.54,-4.41 -11.75,-5.699 -4.23,-1.332 -8.82,-1.961 -13.82,-1.961 -6.63,0 -12.76,1.308 -18.4,3.93 -5.65,2.64 -10.51,6.39 -14.61,11.25 -4.15,4.878 -7.25,10.601 -9.38,17.21 -2.15,6.579 -3.2,13.711 -3.2,21.36 0,16.211 4.22,28.851 12.66,37.91 8.43,9.051 19.55,13.582 33.32,13.582 7.95,0 14.68,-1.312 20.16,-3.852 5.48,-2.558 10.81,-6.519 16.02,-11.82 v 38.27 c 0,5.332 1.1,9.332 3.37,12.07 2.27,2.711 5.5,4.082 9.68,4.082 4.19,0 7.41,-1.25 9.67,-3.75 2.27,-2.523 3.4,-6.191 3.4,-11.082 V 257.152 c 0,-4.941 -1.21,-8.632 -3.65,-11.113 -2.44,-2.469 -5.57,-3.699 -9.42,-3.699 -3.79,0 -6.91,1.269 -9.37,3.832 -2.46,2.578 -3.68,6.226 -3.68,10.98" /><path
         id="path526"
         style="fill:#a4a6a9;fill-opacity:1;fill-rule:nonzero;stroke:none"
         d="m 2878.79,303.402 h 50.12 c -0.67,8.868 -3.23,15.508 -7.64,19.899 -4.43,4.41 -10.25,6.597 -17.48,6.597 -6.9,0 -12.56,-2.218 -16.95,-6.679 -4.44,-4.469 -7.09,-11.067 -8.05,-19.817 m 54.06,-14.73 h -54.06 c 0.06,-5.883 1.33,-11.07 3.79,-15.563 2.47,-4.5 5.74,-7.898 9.82,-10.16 4.08,-2.289 8.58,-3.418 13.52,-3.418 3.32,0 6.33,0.348 9.08,1.078 2.73,0.743 5.37,1.871 7.95,3.43 2.57,1.551 4.92,3.211 7.09,4.981 2.15,1.781 4.96,4.199 8.4,7.23 1.4,1.129 3.44,1.719 6.07,1.719 2.85,0 5.15,-0.739 6.9,-2.207 1.74,-1.461 2.64,-3.492 2.64,-6.172 0,-2.34 -1,-5.059 -2.96,-8.199 -1.95,-3.153 -4.92,-6.161 -8.84,-9.032 -3.99,-2.89 -8.93,-5.269 -14.91,-7.16 -5.97,-1.918 -12.84,-2.859 -20.6,-2.859 -17.78,0 -31.58,4.75 -41.43,14.242 -9.86,9.488 -14.79,22.379 -14.79,38.648 0,7.68 1.23,14.79 3.64,21.329 2.44,6.562 6,12.171 10.64,16.863 4.65,4.687 10.4,8.277 17.23,10.777 6.82,2.5 14.38,3.75 22.68,3.75 10.8,0 20.06,-2.129 27.79,-6.41 7.74,-4.269 13.54,-9.797 17.36,-16.559 3.85,-6.781 5.79,-13.691 5.79,-20.699 0,-6.551 -2,-10.761 -5.97,-12.699 -3.98,-1.93 -9.58,-2.91 -16.83,-2.91" /><path
         id="path528"
         style="fill:#a4a6a9;fill-opacity:1;fill-rule:nonzero;stroke:none"
         d="m 3058.85,276.25 c 0,-7.148 -1.85,-13.281 -5.58,-18.379 -3.7,-5.101 -9.19,-8.961 -16.45,-11.601 -7.25,-2.622 -16.08,-3.93 -26.47,-3.93 -9.94,0 -18.46,1.43 -25.54,4.281 -7.08,2.828 -12.33,6.41 -15.71,10.668 -3.36,4.293 -5.06,8.57 -5.06,12.891 0,2.851 1.1,5.269 3.26,7.3 2.16,2.008 4.89,3.032 8.21,3.032 2.89,0 5.12,-0.672 6.66,-1.992 1.56,-1.329 3.06,-3.211 4.45,-5.59 2.85,-4.649 6.25,-8.071 10.2,-10.371 3.94,-2.27 9.31,-3.418 16.15,-3.418 5.55,0 10.08,1.168 13.62,3.48 3.55,2.32 5.31,4.961 5.31,7.93 0,4.57 -1.82,7.871 -5.51,9.961 -3.68,2.09 -9.73,4.097 -18.19,5.988 -9.51,2.211 -17.26,4.551 -23.24,7 -5.98,2.422 -10.74,5.641 -14.33,9.621 -3.58,3.988 -5.38,8.91 -5.38,14.731 0,5.179 1.67,10.097 4.96,14.73 3.33,4.609 8.21,8.297 14.67,11.047 6.43,2.762 14.2,4.141 23.32,4.141 7.17,0 13.6,-0.7 19.29,-2.11 5.73,-1.359 10.5,-3.262 14.31,-5.601 3.81,-2.329 6.7,-4.918 8.69,-7.77 1.99,-2.859 2.99,-5.629 2.99,-8.359 0,-2.969 -1.08,-5.41 -3.19,-7.328 -2.13,-1.872 -5.13,-2.852 -9.08,-2.852 -2.83,0 -5.24,0.762 -7.23,2.301 -1.99,1.508 -4.26,3.789 -6.83,6.82 -2.09,2.539 -4.55,4.57 -7.38,6.09 -2.84,1.531 -6.69,2.269 -11.57,2.269 -5,0 -9.14,-0.98 -12.46,-2.992 -3.3,-1.988 -4.95,-4.468 -4.95,-7.437 0,-2.731 1.2,-4.961 3.64,-6.699 2.45,-1.762 5.71,-3.2 9.84,-4.332 4.12,-1.141 9.76,-2.52 17.02,-4.161 8.55,-1.98 15.55,-4.32 21,-7.039 5.42,-2.711 9.55,-5.929 12.36,-9.64 2.81,-3.719 4.2,-7.93 4.2,-12.68" /><path
         id="path530"
         style="fill:#a4a6a9;fill-opacity:1;fill-rule:nonzero;stroke:none"
         d="m 3100.78,333.051 v -74.942 c 0,-5.199 -1.33,-9.129 -3.96,-11.777 -2.64,-2.684 -5.98,-3.992 -10.04,-3.992 -4.04,0 -7.33,1.351 -9.87,4.09 -2.53,2.711 -3.78,6.621 -3.78,11.679 v 74.18 c 0,5.109 1.25,8.981 3.78,11.582 2.54,2.59 5.83,3.899 9.87,3.899 4.06,0 7.4,-1.309 10.04,-3.899 2.63,-2.601 3.96,-6.211 3.96,-10.82 m -13.69,26.769 c -3.85,0 -7.14,1.121 -9.86,3.321 -2.74,2.211 -4.1,5.359 -4.1,9.418 0,3.671 1.38,6.683 4.19,9.062 2.8,2.379 6.07,3.578 9.77,3.578 3.59,0 6.76,-1.078 9.53,-3.25 2.76,-2.148 4.16,-5.269 4.16,-9.39 0,-4.008 -1.35,-7.11 -4.06,-9.36 -2.72,-2.238 -5.92,-3.379 -9.63,-3.379" /><path
         id="path532"
         style="fill:#a4a6a9;fill-opacity:1;fill-rule:nonzero;stroke:none"
         d="m 3141.79,295.902 c 0,-10.511 2.43,-18.461 7.33,-23.832 4.89,-5.39 11.23,-8.09 19,-8.09 4.58,0 8.91,1.18 12.99,3.481 4.1,2.309 7.42,5.801 10,10.449 2.56,4.649 3.85,10.289 3.85,16.949 0,10.571 -2.48,18.813 -7.46,24.692 -4.95,5.879 -11.48,8.828 -19.59,8.828 -7.89,0 -14.23,-2.809 -18.98,-8.457 -4.77,-5.621 -7.14,-13.633 -7.14,-24.02 m 80.1,32.868 v -75.309 c 0,-8.621 -0.97,-16.039 -2.93,-22.25 -1.97,-6.191 -5.11,-11.332 -9.42,-15.371 -4.33,-4.039 -9.97,-7.07 -16.98,-9.02 -6.97,-1.98 -15.66,-2.949 -26.08,-2.949 -9.51,0 -18,1.25 -25.52,3.75 -7.48,2.52 -13.25,5.738 -17.31,9.68 -4.04,3.969 -6.08,8.031 -6.08,12.211 0,3.168 1.14,5.758 3.46,7.738 2.29,2.012 5.05,3 8.29,3 4.06,0 7.59,-1.68 10.64,-5.039 1.48,-1.691 3.01,-3.43 4.6,-5.172 1.58,-1.758 3.35,-3.238 5.26,-4.469 1.92,-1.23 4.24,-2.148 6.94,-2.761 2.71,-0.579 5.82,-0.899 9.33,-0.899 7.15,0 12.71,0.942 16.66,2.82 3.95,1.852 6.71,4.469 8.31,7.829 1.6,3.343 2.5,6.929 2.78,10.781 0.26,3.832 0.48,9.98 0.59,18.48 -4.23,-5.59 -9.14,-9.832 -14.74,-12.738 -5.55,-2.91 -12.18,-4.371 -19.89,-4.371 -9.24,0 -17.32,2.219 -24.25,6.66 -6.92,4.43 -12.23,10.617 -15.94,18.609 -3.73,7.989 -5.59,17.192 -5.59,27.641 0,7.77 1.14,14.82 3.4,21.07 2.27,6.289 5.47,11.559 9.69,15.879 4.16,4.301 8.99,7.539 14.45,9.731 5.47,2.179 11.5,3.281 18.03,3.281 7.83,0 14.63,-1.434 20.37,-4.223 5.73,-2.828 11.08,-7.25 16,-13.257 v 3.507 c 0,4.5 1.17,7.973 3.54,10.45 2.38,2.461 5.42,3.711 9.12,3.711 5.34,0 8.88,-1.641 10.62,-4.899 1.78,-3.262 2.65,-7.973 2.65,-14.101" /><path
         id="path534"
         style="fill:#a4a6a9;fill-opacity:1;fill-rule:nonzero;stroke:none"
         d="m 3265.84,333.422 v -3.133 c 4.84,6.02 10.18,10.43 15.96,13.25 5.76,2.813 12.4,4.231 19.9,4.231 7.28,0 13.81,-1.5 19.53,-4.469 5.73,-2.992 10.04,-7.192 12.85,-12.621 1.86,-3.18 3.03,-6.598 3.55,-10.27 0.55,-3.668 0.83,-8.359 0.83,-14.058 v -48.243 c 0,-5.199 -1.27,-9.129 -3.79,-11.777 -2.54,-2.66 -5.83,-3.992 -9.87,-3.992 -4.15,0 -7.48,1.351 -10.03,4.09 -2.59,2.711 -3.86,6.621 -3.86,11.679 v 43.223 c 0,8.527 -1.28,15.078 -3.8,19.609 -2.54,4.508 -7.58,6.789 -15.14,6.789 -4.94,0 -9.43,-1.378 -13.47,-4.14 -4.07,-2.75 -7.02,-6.539 -8.91,-11.34 -1.36,-3.871 -2.03,-11.078 -2.03,-21.66 v -32.481 c 0,-5.257 -1.31,-9.199 -3.89,-11.839 -2.6,-2.622 -5.96,-3.93 -10.08,-3.93 -4,0 -7.26,1.351 -9.83,4.09 -2.57,2.711 -3.86,6.621 -3.86,11.679 v 74.942 c 0,4.941 1.15,8.629 3.44,11.07 2.31,2.418 5.44,3.649 9.41,3.649 2.46,0 4.65,-0.54 6.61,-1.622 1.96,-1.089 3.51,-2.687 4.7,-4.839 1.19,-2.149 1.78,-4.789 1.78,-7.887" /><path
         id="path536"
         style="fill:#a4a6a9;fill-opacity:1;fill-rule:nonzero;stroke:none"
         d="m 3379.97,303.402 h 50.13 c -0.67,8.868 -3.22,15.508 -7.64,19.899 -4.43,4.41 -10.25,6.597 -17.48,6.597 -6.87,0 -12.54,-2.218 -16.97,-6.679 -4.42,-4.469 -7.08,-11.067 -8.04,-19.817 m 54.09,-14.73 h -54.09 c 0.09,-5.883 1.34,-11.07 3.82,-15.563 2.45,-4.5 5.72,-7.898 9.82,-10.16 4.07,-2.289 8.58,-3.418 13.5,-3.418 3.31,0 6.33,0.348 9.08,1.078 2.71,0.743 5.37,1.871 7.95,3.43 2.54,1.551 4.92,3.211 7.09,4.981 2.15,1.781 4.95,4.199 8.39,7.23 1.42,1.129 3.46,1.719 6.08,1.719 2.84,0 5.14,-0.739 6.9,-2.207 1.75,-1.461 2.61,-3.492 2.61,-6.172 0,-2.34 -0.97,-5.059 -2.92,-8.199 -1.96,-3.153 -4.93,-6.161 -8.85,-9.032 -3.97,-2.89 -8.93,-5.269 -14.9,-7.16 -5.98,-1.918 -12.86,-2.859 -20.62,-2.859 -17.74,0 -31.55,4.75 -41.43,14.242 -9.85,9.488 -14.78,22.379 -14.78,38.648 0,7.68 1.22,14.79 3.64,21.329 2.44,6.562 6,12.171 10.65,16.863 4.66,4.687 10.41,8.277 17.22,10.777 6.81,2.5 14.4,3.75 22.68,3.75 10.79,0 20.06,-2.129 27.81,-6.41 7.72,-4.269 13.52,-9.797 17.36,-16.559 3.85,-6.781 5.77,-13.691 5.77,-20.699 0,-6.551 -2,-10.761 -5.98,-12.699 -3.97,-1.93 -9.57,-2.91 -16.8,-2.91" /><path
         id="path538"
         style="fill:#a4a6a9;fill-opacity:1;fill-rule:nonzero;stroke:none"
         d="m 3492.38,295.23 c 0,-7.031 1.16,-13 3.5,-17.941 2.32,-4.949 5.51,-8.66 9.57,-11.16 4.04,-2.5 8.48,-3.77 13.27,-3.77 4.85,0 9.31,1.192 13.31,3.582 4.02,2.36 7.23,6.008 9.63,10.918 2.38,4.903 3.59,11.051 3.59,18.371 0,6.922 -1.21,12.86 -3.59,17.84 -2.4,4.961 -5.62,8.75 -9.73,11.379 -4.08,2.621 -8.57,3.93 -13.41,3.93 -5.06,0 -9.59,-1.348 -13.58,-4.02 -3.98,-2.699 -7.07,-6.55 -9.28,-11.589 -2.18,-5.04 -3.28,-10.879 -3.28,-17.54 m 54.4,-38.078 v 2.578 c -3.73,-3.992 -7.4,-7.25 -11,-9.73 -3.63,-2.52 -7.52,-4.41 -11.75,-5.699 -4.21,-1.332 -8.83,-1.961 -13.82,-1.961 -6.64,0 -12.75,1.308 -18.37,3.93 -5.65,2.64 -10.55,6.39 -14.65,11.25 -4.12,4.878 -7.25,10.601 -9.38,17.21 -2.11,6.579 -3.18,13.711 -3.18,21.36 0,16.211 4.22,28.851 12.66,37.91 8.44,9.051 19.55,13.582 33.34,13.582 7.94,0 14.67,-1.312 20.15,-3.852 5.45,-2.558 10.78,-6.519 16,-11.82 v 38.27 c 0,5.332 1.12,9.332 3.38,12.07 2.26,2.711 5.48,4.082 9.67,4.082 4.19,0 7.42,-1.25 9.66,-3.75 2.28,-2.523 3.42,-6.191 3.42,-11.082 V 257.152 c 0,-4.941 -1.23,-8.632 -3.66,-11.113 -2.41,-2.469 -5.56,-3.699 -9.42,-3.699 -3.77,0 -6.89,1.269 -9.36,3.832 -2.46,2.578 -3.69,6.226 -3.69,10.98" /><path
         id="path540"
         style="fill:#a4a6a9;fill-opacity:1;fill-rule:nonzero;stroke:none"
         d="m 3661.09,294.469 c 0,-10.309 2.52,-18.239 7.54,-23.77 5.04,-5.539 11.62,-8.34 19.81,-8.34 6.96,0 12.97,2.84 17.98,8.52 5.04,5.66 7.54,13.793 7.54,24.351 0,6.84 -1.05,12.739 -3.12,17.68 -2.11,4.942 -5.07,8.75 -8.93,11.449 -3.84,2.672 -8.34,4.02 -13.47,4.02 -5.27,0 -9.97,-1.348 -14.07,-4.02 -4.14,-2.699 -7.36,-6.589 -9.73,-11.679 -2.35,-5.098 -3.55,-11.18 -3.55,-18.211 m -1.32,77.031 v -39.59 c 5.2,5.059 10.51,8.949 15.91,11.629 5.39,2.691 12.07,4.043 20.05,4.043 9.19,0 17.23,-2.051 24.16,-6.121 6.92,-4.102 12.3,-10.012 16.11,-17.77 3.8,-7.75 5.72,-16.949 5.72,-27.601 0,-7.852 -1.06,-15.039 -3.18,-21.602 -2.13,-6.558 -5.24,-12.238 -9.28,-17.047 -4.05,-4.8 -8.95,-8.531 -14.72,-11.171 -5.79,-2.622 -12.16,-3.93 -19.09,-3.93 -4.28,0 -8.28,0.469 -12.01,1.43 -3.77,0.941 -6.96,2.191 -9.57,3.75 -2.63,1.539 -4.89,3.14 -6.76,4.781 -1.85,1.648 -4.3,4.129 -7.34,7.429 v -2.578 c 0,-4.863 -1.23,-8.562 -3.73,-11.082 -2.5,-2.5 -5.67,-3.73 -9.52,-3.73 -3.92,0 -7.05,1.23 -9.37,3.73 -2.34,2.52 -3.5,6.219 -3.5,11.082 v 113.219 c 0,5.25 1.12,9.238 3.39,11.918 2.26,2.691 5.42,4.043 9.48,4.043 4.24,0 7.52,-1.293 9.83,-3.852 2.28,-2.582 3.42,-6.21 3.42,-10.98" /><path
         id="path542"
         style="fill:#a4a6a9;fill-opacity:1;fill-rule:nonzero;stroke:none"
         d="m 3777.56,239.102 2.54,5.796 -34.03,80.352 c -2.11,4.609 -3.14,7.988 -3.14,10.082 0,2.207 0.61,4.258 1.82,6.148 1.23,1.922 2.89,3.442 5.02,4.571 2.11,1.16 4.32,1.719 6.64,1.719 3.97,0 6.97,-1.188 9.01,-3.571 2.02,-2.359 3.82,-5.758 5.36,-10.199 l 23.4,-63.82 22.19,59.351 c 1.75,4.809 3.33,8.578 4.74,11.309 1.42,2.711 2.91,4.551 4.5,5.492 1.61,0.957 3.86,1.438 6.75,1.438 2.1,0 4.1,-0.52 6.04,-1.579 1.91,-1.031 3.4,-2.441 4.43,-4.222 1.05,-1.77 1.58,-3.629 1.58,-5.598 -0.26,-1.191 -0.7,-2.91 -1.32,-5.141 -0.61,-2.21 -1.33,-4.468 -2.21,-6.742 L 3804.8,235.98 c -3.1,-7.8 -6.14,-13.89 -9.1,-18.32 -2.98,-4.441 -6.91,-7.859 -11.8,-10.219 -4.9,-2.382 -11.5,-3.57 -19.82,-3.57 -8.09,0 -14.16,0.82 -18.2,2.461 -4.08,1.66 -6.08,4.668 -6.08,9.039 0,2.969 0.94,5.27 2.88,6.879 1.91,1.621 4.76,2.441 8.55,2.441 1.48,0 2.95,-0.203 4.36,-0.589 1.75,-0.372 3.28,-0.563 4.57,-0.563 3.16,0 5.66,0.422 7.5,1.32 1.8,0.879 3.43,2.43 4.9,4.61 1.44,2.172 3.12,5.39 5,9.633" /><path
         id="path544"
         style="fill:#a4a6a9;fill-opacity:1;fill-rule:nonzero;stroke:none"
         d="m 4178.12,345.531 h 6.58 v 7.77 c 0,8.148 1.08,14.57 3.29,19.379 2.17,4.781 5.92,8.261 11.16,10.441 5.23,2.168 12.39,3.27 21.49,3.27 16.22,0 24.24,-3.68 24.24,-11.141 0,-2.379 -0.85,-4.449 -2.56,-6.148 -1.66,-1.704 -3.67,-2.563 -5.95,-2.563 -1.06,0 -2.95,0.18 -5.63,0.59 -2.54,0.332 -4.82,0.57 -6.64,0.57 -4.98,0 -8.16,-1.41 -9.67,-4.16 -1.34,-2.758 -2.05,-6.68 -2.05,-11.84 v -6.168 h 6.74 c 10.57,0 15.79,-2.972 15.79,-8.972 0,-4.18 -1.36,-6.887 -4.19,-8.039 -2.79,-1.141 -6.64,-1.7 -11.6,-1.7 h -6.74 v -68.711 c 0,-5.117 -1.3,-9.007 -3.94,-11.679 -2.58,-2.739 -5.92,-4.071 -10.06,-4.071 -3.92,0 -7.17,1.332 -9.79,4.071 -2.6,2.672 -3.89,6.562 -3.89,11.679 v 68.711 h -7.61 c -4.14,0 -7.27,0.84 -9.51,2.61 -2.23,1.699 -3.38,3.992 -3.38,6.781 0,6.23 4.65,9.32 13.92,9.32" /><path
         id="path546"
         style="fill:#a4a6a9;fill-opacity:1;fill-rule:nonzero;stroke:none"
         d="m 4268.63,279.789 v -21.68 c 0,-5.238 -1.42,-9.199 -3.98,-11.8 -2.62,-2.661 -5.96,-3.95 -10,-3.95 -4.05,0 -7.33,1.313 -9.86,4.012 -2.54,2.629 -3.85,6.539 -3.85,11.738 v 72.223 c 0,11.656 4.47,17.477 13.43,17.477 4.63,0 7.93,-1.348 9.97,-4.079 2,-2.73 3.14,-6.742 3.37,-12.089 3.3,5.347 6.65,9.359 10.1,12.089 3.55,2.731 8.15,4.079 13.99,4.079 5.84,0 11.42,-1.348 16.9,-4.079 5.5,-2.73 8.21,-6.371 8.21,-10.839 0,-3.141 -1.17,-5.821 -3.47,-7.809 -2.35,-2.09 -4.85,-3.133 -7.52,-3.133 -1.08,0 -3.56,0.633 -7.38,1.801 -3.89,1.129 -7.35,1.742 -10.27,1.742 -4.06,0 -7.39,-1.043 -9.95,-2.992 -2.59,-2.051 -4.59,-4.961 -6,-8.871 -1.38,-3.938 -2.36,-8.649 -2.93,-14.039 -0.5,-5.43 -0.76,-12.031 -0.76,-19.801" /><path
         id="path548"
         style="fill:#a4a6a9;fill-opacity:1;fill-rule:nonzero;stroke:none"
         d="m 4341.65,303.461 h 50.13 c -0.67,8.84 -3.19,15.488 -7.62,19.859 -4.45,4.41 -10.23,6.578 -17.48,6.578 -6.89,0 -12.56,-2.187 -16.97,-6.679 -4.42,-4.449 -7.12,-11.028 -8.06,-19.758 m 54.11,-14.75 h -54.11 c 0.11,-5.902 1.32,-11.109 3.77,-15.59 2.52,-4.473 5.77,-7.871 9.87,-10.172 4.1,-2.269 8.56,-3.398 13.54,-3.398 3.3,0 6.31,0.328 9.04,1.109 2.71,0.711 5.39,1.86 7.95,3.399 2.59,1.55 4.92,3.211 7.09,5 2.17,1.761 4.98,4.179 8.44,7.211 1.4,1.128 3.45,1.742 6.03,1.742 2.87,0 5.14,-0.742 6.94,-2.231 1.77,-1.461 2.59,-3.492 2.59,-6.172 0,-2.339 -0.95,-5.078 -2.87,-8.179 -1.97,-3.192 -4.93,-6.18 -8.9,-9.071 -3.99,-2.871 -8.95,-5.269 -14.91,-7.148 -5.97,-1.891 -12.84,-2.852 -20.58,-2.852 -17.83,0 -31.62,4.731 -41.45,14.223 -9.86,9.508 -14.83,22.418 -14.83,38.668 0,7.68 1.25,14.789 3.68,21.352 2.42,6.578 5.96,12.168 10.66,16.878 4.65,4.7 10.34,8.282 17.21,10.782 6.8,2.5 14.36,3.75 22.68,3.75 10.77,0 20.06,-2.153 27.79,-6.473 7.72,-4.219 13.59,-9.758 17.38,-16.539 3.83,-6.801 5.77,-13.668 5.77,-20.738 0,-6.492 -2.02,-10.711 -5.99,-12.66 -3.98,-1.93 -9.56,-2.891 -16.79,-2.891" /><path
         id="path550"
         style="fill:#a4a6a9;fill-opacity:1;fill-rule:nonzero;stroke:none"
         d="m 4456.7,303.461 h 50.12 c -0.67,8.84 -3.24,15.488 -7.63,19.859 -4.48,4.41 -10.24,6.578 -17.49,6.578 -6.9,0 -12.54,-2.187 -16.99,-6.679 -4.4,-4.449 -7.11,-11.028 -8.01,-19.758 m 54.09,-14.75 h -54.09 c 0.06,-5.902 1.33,-11.109 3.77,-15.59 2.48,-4.473 5.75,-7.871 9.8,-10.172 4.09,-2.269 8.62,-3.398 13.6,-3.398 3.26,0 6.31,0.328 8.98,1.109 2.76,0.711 5.4,1.86 8.01,3.399 2.58,1.55 4.91,3.211 7.07,5 2.13,1.761 4.96,4.179 8.42,7.211 1.44,1.128 3.47,1.742 6.04,1.742 2.87,0 5.17,-0.742 6.94,-2.231 1.76,-1.461 2.58,-3.492 2.58,-6.172 0,-2.339 -0.93,-5.078 -2.95,-8.179 -1.86,-3.192 -4.84,-6.18 -8.84,-9.071 -3.93,-2.871 -8.95,-5.269 -14.87,-7.148 -5.95,-1.891 -12.87,-2.852 -20.64,-2.852 -17.76,0 -31.55,4.731 -41.45,14.223 -9.82,9.508 -14.78,22.418 -14.78,38.668 0,7.68 1.23,14.789 3.69,21.352 2.42,6.578 5.98,12.168 10.64,16.878 4.61,4.7 10.35,8.282 17.19,10.782 6.8,2.5 14.4,3.75 22.72,3.75 10.74,0 20.03,-2.153 27.86,-6.473 7.68,-4.219 13.49,-9.758 17.28,-16.539 3.84,-6.801 5.81,-13.668 5.81,-20.738 0,-6.492 -2.04,-10.711 -5.99,-12.66 -4.01,-1.93 -9.58,-2.891 -16.79,-2.891" /><path
         id="path552"
         style="fill:#a4a6a9;fill-opacity:1;fill-rule:nonzero;stroke:none"
         d="m 4625.57,295.551 c 0,6.828 -1.15,12.73 -3.35,17.629 -2.24,4.929 -5.34,8.679 -9.25,11.269 -3.92,2.641 -8.33,3.973 -13.13,3.973 -7.61,0 -14.08,-2.832 -19.29,-8.442 -5.26,-5.66 -7.87,-13.941 -7.87,-24.921 0,-10.27 2.59,-18.34 7.82,-24.059 5.2,-5.75 11.58,-8.602 19.34,-8.602 4.57,0 8.85,1.25 12.76,3.731 3.95,2.519 7.1,6.25 9.43,11.25 2.35,5.019 3.54,11.101 3.54,18.172 m -54.21,37.668 v -3.098 c 5.18,6.008 10.59,10.43 16.24,13.238 5.54,2.852 11.93,4.282 19.02,4.282 8.48,0 16.37,-2.09 23.54,-6.18 7.15,-4.141 12.78,-10.152 16.93,-18.059 4.16,-7.953 6.25,-17.312 6.25,-28.152 0,-7.949 -1.19,-15.309 -3.59,-22.012 -2.37,-6.679 -5.73,-12.258 -9.89,-16.789 -4.22,-4.5 -9.12,-8.008 -14.83,-10.449 -5.77,-2.43 -11.83,-3.641 -18.41,-3.641 -7.87,0 -14.57,1.493 -19.9,4.481 -5.37,2.91 -10.47,7.32 -15.36,13.039 v -38.918 c 0,-11.352 -4.45,-17.09 -13.27,-17.09 -5.23,0 -8.62,1.438 -10.38,4.367 -1.6,3.012 -2.48,7.254 -2.48,12.91 v 111.961 c 0,4.942 1.14,8.59 3.42,11.071 2.29,2.379 5.46,3.629 9.44,3.629 3.94,0 7.11,-1.25 9.54,-3.75 2.52,-2.52 3.73,-6.09 3.73,-10.84" /><path
         id="path554"
         style="fill:#a4a6a9;fill-opacity:1;fill-rule:nonzero;stroke:none"
         d="M 4694.88,333.109 V 258.09 c 0,-5.16 -1.31,-9.09 -3.93,-11.719 -2.67,-2.699 -6.01,-4.012 -10.04,-4.012 -4.06,0 -7.32,1.332 -9.89,4.071 -2.5,2.75 -3.81,6.64 -3.81,11.66 v 74.269 c 0,5.102 1.31,8.95 3.81,11.551 2.57,2.629 5.83,3.899 9.89,3.899 4.03,0 7.37,-1.27 10.04,-3.899 2.62,-2.601 3.93,-6.23 3.93,-10.801 m -13.69,26.77 c -3.87,0 -7.13,1.16 -9.84,3.359 -2.78,2.231 -4.14,5.313 -4.14,9.364 0,3.687 1.38,6.699 4.24,9.097 2.79,2.34 6.02,3.551 9.74,3.551 3.63,0 6.78,-1.051 9.53,-3.18 2.77,-2.191 4.16,-5.351 4.16,-9.468 0,-3.993 -1.34,-7.11 -4.04,-9.364 -2.71,-2.199 -5.92,-3.359 -9.65,-3.359" /><path
         id="path556"
         style="fill:#a4a6a9;fill-opacity:1;fill-rule:nonzero;stroke:none"
         d="m 4784.02,254.199 -24.34,37.66 -15.01,-13.289 v -20.66 c 0,-4.98 -1.43,-8.808 -4.26,-11.48 -2.73,-2.739 -6.02,-4.071 -9.65,-4.071 -4.26,0 -7.63,1.313 -10.04,4.012 -2.4,2.609 -3.65,6.559 -3.65,11.738 V 368.73 c 0,5.739 1.22,10.122 3.54,13.141 2.35,3.051 5.81,4.52 10.15,4.52 4.26,0 7.61,-1.371 10.11,-4.102 2.5,-2.719 3.8,-6.738 3.8,-12.019 v -62.95 l 31.09,30.629 c 3.85,3.77 6.72,6.41 8.81,7.789 2.01,1.391 4.47,2.071 7.34,2.071 3.48,0 6.33,-1.028 8.72,-3.079 2.24,-2.05 3.41,-4.648 3.41,-7.742 0,-3.789 -3.79,-8.879 -11.27,-15.207 l -14.68,-12.621 28.37,-41.84 c 2.06,-3.121 3.6,-5.429 4.52,-7.05 0.9,-1.598 1.36,-3.2 1.36,-4.629 0,-4.121 -1.2,-7.34 -3.61,-9.739 -2.4,-2.363 -5.59,-3.543 -9.43,-3.543 -3.4,0 -6.03,0.821 -7.84,2.563 -1.81,1.719 -4.35,4.828 -7.44,9.277" /><path
         id="path558"
         style="fill:#a4a6a9;fill-opacity:1;fill-rule:nonzero;stroke:none"
         d="m 4844.11,242.359 c -4.17,0 -7.74,1.25 -10.81,3.813 -3.03,2.476 -4.56,6.058 -4.56,10.648 0,3.84 1.46,7.18 4.38,9.942 2.92,2.789 6.47,4.199 10.75,4.199 4.22,0 7.85,-1.41 10.88,-4.121 2.98,-2.758 4.53,-6.141 4.53,-10.02 0,-4.531 -1.55,-8.09 -4.53,-10.609 -3.03,-2.602 -6.59,-3.852 -10.64,-3.852" /><path
         id="path560"
         style="fill:#a4a6a9;fill-opacity:1;fill-rule:nonzero;stroke:none"
         d="m 4981.66,274.449 c 0,-3.199 -1.03,-6.679 -3.11,-10.328 -2.03,-3.711 -5.19,-7.191 -9.43,-10.512 -4.22,-3.32 -9.5,-6.007 -15.96,-8.019 -6.39,-2.039 -13.64,-3.07 -21.64,-3.07 -17.14,0 -30.47,4.691 -40.07,14 -9.54,9.359 -14.35,21.902 -14.35,37.601 0,10.68 2.17,20.059 6.61,28.238 4.35,8.153 10.7,14.481 18.99,18.95 8.32,4.472 18.31,6.703 29.8,6.703 7.17,0 13.73,-0.981 19.75,-2.953 5.97,-1.95 10.99,-4.508 15.17,-7.598 4.15,-3.141 7.35,-6.422 9.51,-9.922 2.21,-3.519 3.27,-6.801 3.27,-9.859 0,-3.09 -1.22,-5.731 -3.65,-7.879 -2.52,-2.141 -5.5,-3.242 -8.93,-3.242 -2.34,0 -4.25,0.57 -5.77,1.66 -1.54,1.121 -3.26,2.89 -5.13,5.41 -3.37,4.793 -6.88,8.422 -10.62,10.801 -3.64,2.429 -8.31,3.621 -13.99,3.621 -8.13,0 -14.75,-2.969 -19.77,-8.969 -5,-5.961 -7.5,-14.203 -7.5,-24.551 0,-4.879 0.67,-9.39 1.96,-13.48 1.25,-4.063 3.1,-7.551 5.54,-10.43 2.46,-2.871 5.37,-5.051 8.81,-6.539 3.46,-1.543 7.27,-2.262 11.35,-2.262 5.55,0 10.29,1.211 14.25,3.61 4.01,2.402 7.49,6.07 10.52,11.019 1.68,2.91 3.47,5.172 5.43,6.832 1.94,1.641 4.35,2.5 7.18,2.5 3.4,0 6.21,-1.23 8.4,-3.629 2.25,-2.402 3.38,-4.98 3.38,-7.703" /><path
         id="path562"
         style="fill:#a4a6a9;fill-opacity:1;fill-rule:nonzero;stroke:none"
         d="m 5073.23,295.059 c 0,10.582 -2.5,18.812 -7.43,24.691 -4.94,5.949 -11.62,8.879 -20,8.879 -5.41,0 -10.17,-1.328 -14.33,-3.938 -4.13,-2.621 -7.25,-6.492 -9.48,-11.64 -2.22,-5.141 -3.35,-11.141 -3.35,-17.992 0,-6.778 1.09,-12.68 3.29,-17.739 2.21,-5.09 5.36,-8.961 9.44,-11.66 4.12,-2.648 8.91,-4.039 14.43,-4.039 8.38,0 15.06,2.969 20,8.93 4.93,5.898 7.43,14.101 7.43,24.508 m 27.77,0 c 0,-7.7 -1.31,-14.848 -3.79,-21.387 -2.65,-6.52 -6.31,-12.133 -11.21,-16.781 -4.85,-4.68 -10.69,-8.282 -17.39,-10.801 -6.81,-2.481 -14.39,-3.75 -22.81,-3.75 -8.37,0 -15.92,1.269 -22.62,3.832 -6.64,2.476 -12.48,6.129 -17.32,10.816 -4.92,4.774 -8.65,10.332 -11.23,16.762 -2.46,6.449 -3.75,13.551 -3.75,21.309 0,7.871 1.33,15.062 3.83,21.582 2.58,6.539 6.29,12.129 11.09,16.738 4.81,4.613 10.57,8.16 17.38,10.703 6.86,2.477 14.4,3.727 22.62,3.727 8.38,0 15.98,-1.25 22.81,-3.809 6.78,-2.52 12.6,-6.148 17.51,-10.801 4.9,-4.738 8.59,-10.289 11.11,-16.719 2.48,-6.5 3.77,-13.589 3.77,-21.421" /><path
         id="path564"
         style="fill:#a4a6a9;fill-opacity:1;fill-rule:nonzero;stroke:none"
         d="m 5206.48,293.16 v -34.469 c 0,-5.472 -1.28,-9.511 -3.93,-12.261 -2.67,-2.739 -6.1,-4.09 -10.44,-4.09 -4.18,0 -7.62,1.351 -10.14,4.09 -2.64,2.75 -3.98,6.789 -3.98,12.261 V 300 c 0,6.539 -0.2,11.621 -0.67,15.25 -0.46,3.539 -1.78,6.551 -3.86,8.832 -2.09,2.348 -5.42,3.52 -9.92,3.52 -9.09,0 -15.02,-2.911 -17.88,-8.813 -2.87,-5.758 -4.32,-14.137 -4.32,-25.078 v -35.02 c 0,-5.371 -1.32,-9.449 -3.88,-12.23 -2.64,-2.731 -6.03,-4.121 -10.29,-4.121 -4.2,0 -7.62,1.39 -10.29,4.121 -2.68,2.781 -4.01,6.859 -4.01,12.23 v 74.2 c 0,4.879 1.18,8.589 3.58,11.109 2.44,2.559 5.6,3.809 9.47,3.809 3.82,0 6.96,-1.227 9.53,-3.547 2.5,-2.391 3.77,-5.672 3.77,-9.852 v -2.441 c 4.82,5.351 9.97,9.301 15.41,11.801 5.49,2.601 11.53,3.871 18.26,3.871 6.93,0 12.91,-1.309 17.87,-3.911 5.02,-2.601 9.12,-6.539 12.39,-11.761 4.68,5.281 9.68,9.222 15.03,11.801 5.34,2.582 11.21,3.871 17.74,3.871 7.52,0 14.08,-1.43 19.55,-4.2 5.44,-2.781 9.49,-6.8 12.23,-11.961 2.35,-4.718 3.51,-12.089 3.51,-22.16 v -50.629 c 0,-5.472 -1.31,-9.511 -3.91,-12.261 -2.62,-2.739 -6.13,-4.09 -10.43,-4.09 -4.23,0 -7.63,1.39 -10.29,4.121 -2.67,2.781 -4.02,6.859 -4.02,12.23 v 43.61 c 0,5.59 -0.26,10.039 -0.74,13.379 -0.49,3.379 -1.88,6.211 -4.07,8.48 -2.27,2.27 -5.66,3.442 -10.17,3.442 -3.63,0 -7.12,-1.082 -10.39,-3.09 -3.26,-1.973 -5.83,-4.762 -7.68,-8.121 -1.99,-4.379 -3.03,-12.129 -3.03,-23.231" /><path
         id="path566"
         style="fill:#a4a6a9;fill-opacity:1;fill-rule:nonzero;stroke:none"
         d="m 3919.34,301.352 c -0.02,0.039 -0.02,0.097 -0.02,0.168 0,-0.071 0,-0.129 0.02,-0.168" /><path
         id="path568"
         style="fill:#a4a6a9;fill-opacity:1;fill-rule:nonzero;stroke:none"
         d="m 3920.73,293.051 h 0.04 c -0.54,2.359 -0.94,4.699 -1.27,7.031 0.33,-2.352 0.73,-4.691 1.23,-7.031" /><path
         id="path570"
         style="fill:#a4a6a9;fill-opacity:1;fill-rule:nonzero;stroke:none"
         d="m 3929.9,268.98 c -0.07,0.102 -0.13,0.219 -0.19,0.34 0.06,-0.121 0.12,-0.238 0.19,-0.34" /><path
         id="path572"
         style="fill:#a4a6a9;fill-opacity:1;fill-rule:nonzero;stroke:none"
         d="m 3929.02,270.59 c -0.25,0.449 -0.48,0.89 -0.71,1.34 0.23,-0.469 0.46,-0.891 0.71,-1.34" /><path
         id="path574"
         style="fill:#a4a6a9;fill-opacity:1;fill-rule:nonzero;stroke:none"
         d="m 3923.32,283.789 c 1.35,-4 2.97,-7.887 4.86,-11.578 -1.93,3.769 -3.51,7.648 -4.84,11.578 h -0.02" /><path
         id="path576"
         style="fill:#a4a6a9;fill-opacity:1;fill-rule:nonzero;stroke:none"
         d="m 4026.37,400.699 c 5.35,0 9.29,-0.39 13.83,-1.109 l 1.25,7.64 c 0,0 -12.49,3.59 -28.89,2.34 l -1.29,4.141 c 5.1,1.019 8.93,5.269 8.93,10.348 0,5.82 -5.06,10.531 -11.26,10.531 -6.23,0 -11.24,-4.711 -11.24,-10.531 0,-5.079 3.8,-9.329 8.9,-10.348 l 1.42,-4.629 c -17.43,-2.242 -31.3,-8.613 -31.3,-8.613 l 2.46,-7.047 c 10.53,3.277 19.67,5.289 27.99,6.129 8.1,0.801 14.22,1.148 19.2,1.148" /><path
         id="path578"
         style="fill:#a4a6a9;fill-opacity:1;fill-rule:nonzero;stroke:none"
         d="m 3929.69,362.129 0.06,0.082 c 0.4,0.488 0.82,0.969 1.21,1.418 l -3.36,2.25 -5.2,3.57 c -0.27,-0.39 -8.47,-7.437 -14.94,-20.488 -0.27,0.41 -0.6,0.828 -0.96,1.199 -1.93,1.992 -4.64,3 -8.08,2.949 h -0.16 c -2.13,0 -3.58,0.661 -4.55,1.461 0.97,1.129 1.52,2.559 1.52,4.141 0,3.668 -3.18,6.68 -7.13,6.68 -3.94,0 -7.12,-3.012 -7.12,-6.68 0,-3.711 3.18,-6.699 7.12,-6.699 0.62,0 1.2,0.097 1.78,0.218 1.76,-1.839 4.52,-3.421 8.64,-3.339 2.07,0.019 3.61,-0.489 4.63,-1.571 1.19,-1.211 1.61,-2.949 1.71,-4.269 0,-0.02 0,-0.039 -0.02,-0.039 -4.66,-11.903 -3.34,-26.703 -3.34,-26.703 l 11.29,-0.43 c 0.24,5.391 1.05,14.82 3.97,22.301 5.6,14.5 12.63,23.562 12.93,23.949" /><path
         id="path580"
         style="fill:#a4a6a9;fill-opacity:1;fill-rule:nonzero;stroke:none"
         d="m 4124.46,391.871 c -3.91,0 -7.14,-2.98 -7.14,-6.691 0,-0.571 0.1,-1.121 0.25,-1.641 -1.94,-1.668 -3.64,-4.277 -3.59,-8.129 0.02,-1.949 -0.49,-3.379 -1.64,-4.359 -0.91,-0.742 -2.04,-1.153 -3.16,-1.399 -8.4,11.028 -18.73,17.746 -18.73,17.746 l -8.08,-8.117 c 6.13,-5.222 12.38,-11.761 18.43,-19.91 4.21,-5.641 8.52,-12.91 12.13,-20.152 l 10.91,4.863 c 0,0 -4.97,11.559 -12.02,21.918 1.23,0.41 2.46,1.031 3.54,1.91 2.14,1.82 3.19,4.379 3.13,7.602 -0.02,2.07 0.71,3.468 1.58,4.41 1.2,-0.883 2.74,-1.422 4.39,-1.422 3.96,0 7.14,2.98 7.14,6.68 0,3.711 -3.18,6.691 -7.14,6.691" /><path
         id="path582"
         style="fill:#a4a6a9;fill-opacity:1;fill-rule:nonzero;stroke:none"
         d="m 4096.13,299.84 c -15.04,-6.848 -39.74,-15.93 -72.3,-20.188 -12.78,-1.66 -25.16,-2.273 -36.58,-2.273 -14.81,0 -27.93,1.043 -37.97,2.23 -11.47,1.352 -20.45,3.012 -25.94,4.161 1.31,-3.911 2.91,-7.79 4.84,-11.559 0.02,-0.102 0.06,-0.223 0.13,-0.281 0.23,-0.45 0.46,-0.891 0.71,-1.34 0.23,-0.43 0.45,-0.86 0.69,-1.27 0.06,-0.121 0.12,-0.238 0.19,-0.34 3.21,-5.699 7.09,-10.929 11.51,-15.48 15.35,-15.75 30.99,-18.25 31.14,-18.27 l 0.24,-0.019 0.24,-0.07 c 0.14,-0.059 14.02,-4.239 35.1,-4.239 20.74,0 41.11,3.899 60.5,11.657 14.37,6.89 27.97,17.363 34.69,26.703 5.22,7.218 8.98,14.918 11.21,22.929 1.19,4.258 2.13,11.071 1.56,18.239 -4.23,-2.66 -10.91,-6.45 -19.96,-10.59" /><path
         id="path584"
         style="fill:#a4a6a9;fill-opacity:1;fill-rule:nonzero;stroke:none"
         d="m 3977.46,366.148 c 16.6,0 30.04,-12.609 30.04,-28.179 0,-15.547 -13.44,-28.149 -30.04,-28.149 -16.6,0 -30.03,12.602 -30.03,28.149 0,15.57 13.43,28.179 30.03,28.179 m 87.87,-0.699 c 10.26,0 18.61,-7.789 18.61,-17.418 0,-9.629 -8.35,-17.441 -18.61,-17.441 -10.24,0 -18.57,7.812 -18.57,17.441 0,9.629 8.33,17.418 18.57,17.418 m -130.84,-6.66 c -0.43,-0.609 -6.95,-9.258 -12.09,-22.539 -3.86,-9.941 -3.69,-24.43 -3.69,-24.59 v -0.039 c 0,-3.402 0.22,-6.762 0.61,-10.101 0,-0.071 0,-0.11 0.02,-0.168 0.04,-0.43 0.11,-0.84 0.16,-1.27 0.31,-2.332 0.73,-4.672 1.27,-7.012 7.45,-1.8 52,-11.55 101.83,-5.039 31.19,4.078 54.88,12.731 69.29,19.27 11.94,5.429 19.63,10.359 22.6,12.39 -2.97,10.27 -11.13,26.399 -18.58,36.457 -21.39,28.653 -44.45,36.004 -56.28,37.832 -4.51,0.692 -8.13,1.102 -13.26,1.102 -4.77,0 -10.69,-0.352 -18.58,-1.152 -7.94,-0.77 -16.77,-2.719 -27.01,-5.961 -14.37,-4.489 -27.37,-11.598 -37.6,-20.469 l -0.35,-0.309 c -1.52,-1.312 -4.69,-4.07 -8.34,-8.402" /></g></g></svg>